<?xml version="1.0" standalone="no"?>
<!DOCTYPE svg PUBLIC "-//W3C//DTD SVG 20010904//EN"
 "http://www.w3.org/TR/2001/REC-SVG-20010904/DTD/svg10.dtd">
<svg version="1.0" xmlns="http://www.w3.org/2000/svg"
 width="690.000000pt" height="690.000000pt" viewBox="0 0 690.000000 690.000000"
 preserveAspectRatio="xMidYMid meet">
<metadata>
Created by potrace 1.15, written by Peter Selinger 2001-2017
</metadata>
<g transform="translate(0.000000,690.000000) scale(0.100000,-0.100000)"
fill="#7f0909" stroke="none">
<path d="M3030 6030 c-389 -22 -690 -75 -810 -142 l-36 -19 13 -72 c17 -101
16 -283 -3 -374 -28 -138 -85 -222 -187 -275 -59 -31 -139 -30 -192 1 l-39 23
-28 -34 c-15 -18 -42 -61 -60 -96 l-31 -63 6 -227 c8 -275 53 -780 82 -923 l6
-25 -78 0 c-43 0 -97 -6 -121 -13 -92 -26 -150 -115 -139 -212 8 -62 30 -102
80 -142 51 -42 132 -49 202 -18 26 12 49 21 51 21 2 0 -3 -19 -11 -41 -8 -23
-15 -47 -15 -54 0 -7 34 -40 75 -73 l74 -59 -29 -39 c-26 -35 -27 -41 -15 -60
14 -22 13 -22 -68 -29 -118 -9 -117 -9 -117 -60 l0 -44 -127 -49 c-71 -27
-134 -51 -142 -54 -7 -2 16 -23 54 -47 97 -63 105 -80 105 -226 -1 -66 -5
-154 -10 -195 -7 -61 -6 -84 7 -122 16 -44 15 -48 -2 -75 -20 -29 -21 -44 -41
-402 -6 -114 -5 -134 7 -129 8 4 39 18 70 31 l57 26 18 -35 c10 -19 23 -34 28
-34 5 0 37 11 70 24 42 17 92 26 161 31 55 4 126 16 157 26 43 14 86 19 173
19 l116 0 27 -32 c91 -110 179 -208 282 -316 l118 -122 56 51 56 51 248 -243
c136 -134 261 -257 279 -273 l32 -29 238 235 c230 226 353 338 374 338 5 0 24
-22 41 -50 l31 -50 31 26 c66 54 193 183 276 280 132 154 173 211 167 234 -6
24 8 25 133 9 70 -8 92 -15 122 -40 34 -27 52 -31 272 -64 130 -19 245 -35
257 -35 22 0 22 1 15 128 -4 70 -13 174 -20 232 -11 85 -11 108 -1 120 9 11
14 81 18 245 3 127 10 247 15 267 5 21 31 61 57 90 57 63 80 97 72 104 -8 8
-208 69 -361 109 -71 19 -131 37 -134 39 -2 3 3 17 12 30 15 23 14 28 -4 71
-11 26 -20 52 -20 58 0 6 23 35 52 64 l51 52 -18 40 c-11 25 -15 50 -11 66 l7
26 31 -22 c45 -33 123 -37 176 -10 131 67 152 268 39 368 -44 38 -91 53 -172
53 l-60 0 12 172 c17 252 27 677 19 799 l-8 107 -88 138 -88 138 -86 -3 c-107
-3 -170 16 -224 68 -84 82 -112 183 -119 433 l-6 187 -36 14 c-89 36 -342 76
-616 97 -186 15 -673 20 -855 10z m785 -270 c115 -11 283 -40 371 -65 l51 -15
7 -52 c13 -105 59 -265 102 -356 34 -73 58 -107 109 -159 l65 -65 55 7 c92 11
148 -14 98 -44 -14 -8 -10 -9 15 -4 33 6 34 5 30 -28 -3 -33 -2 -34 57 -55 58
-21 60 -23 68 -65 26 -148 23 -603 -7 -889 l-14 -135 35 -29 c36 -30 63 -74
63 -101 0 -9 -4 -13 -10 -10 -14 8 -13 2 5 -31 34 -66 6 -134 -55 -134 -28 0
-30 2 -31 43 -1 39 -1 40 -9 13 -12 -39 -39 -66 -66 -66 -13 0 -60 20 -106 44
-105 55 -158 66 -319 66 -88 0 -153 6 -202 17 -80 19 -279 24 -387 9 l-65 -8
19 21 c24 26 20 26 -35 1 -63 -28 -75 -26 -49 11 12 16 20 33 16 36 -9 9 -62
-17 -117 -58 -29 -21 -54 -37 -56 -35 -3 2 1 23 7 46 6 23 9 45 5 48 -11 12
-96 -41 -132 -82 -31 -36 -35 -38 -30 -16 3 14 18 60 33 102 16 42 26 80 22
83 -6 7 -28 1 -83 -21 -19 -8 -19 -7 -4 16 9 14 28 48 44 75 l29 50 -27 -24
c-38 -34 -85 -111 -93 -149 -7 -37 -1 -39 41 -14 61 37 64 35 39 -27 -27 -67
-42 -165 -26 -175 6 -3 24 13 41 37 31 46 95 107 111 107 13 0 13 0 -5 -50 -8
-24 -14 -45 -11 -47 2 -2 33 12 70 32 75 40 77 40 70 20 -7 -18 21 -20 60 -5
21 8 26 7 26 -6 0 -12 6 -15 23 -10 88 25 211 38 302 33 143 -8 149 -11 141
-59 -15 -92 -95 -202 -221 -305 -62 -51 -81 -72 -85 -97 -5 -31 -6 -31 -76
-37 -38 -4 -196 -10 -350 -14 -200 -5 -295 -11 -336 -22 -45 -12 -63 -13 -92
-3 -55 18 -47 46 46 183 33 49 72 115 87 146 24 52 26 65 24 181 -2 158 -15
251 -42 289 -12 17 -28 46 -37 67 -13 31 -13 36 -1 31 11 -4 18 17 31 101 15
102 20 116 112 297 53 105 105 199 115 210 19 19 19 19 19 -20 0 -47 11 -68
31 -61 9 3 23 -13 39 -47 20 -41 37 -59 80 -84 70 -42 80 -42 41 2 -38 44 -40
53 -3 25 87 -67 152 -97 152 -69 0 7 11 2 28 -13 58 -54 166 -98 239 -98 27 0
33 4 33 22 0 39 96 -66 135 -147 30 -65 62 -171 54 -180 -9 -8 -338 54 -368
70 -18 9 -53 36 -77 61 -48 47 -53 48 -27 6 26 -42 65 -82 95 -98 32 -17 311
-65 538 -93 191 -24 469 -46 476 -38 9 8 32 199 43 359 6 81 11 264 11 407 0
242 -1 261 -17 261 -10 0 -37 9 -59 19 l-42 19 -25 -112 c-14 -61 -29 -127
-33 -146 -11 -57 -41 -106 -88 -146 -59 -49 -72 -78 -96 -216 -11 -64 -31
-152 -45 -195 -26 -82 -77 -181 -98 -189 -7 -2 -43 2 -81 8 l-70 13 -12 65
c-7 36 -23 94 -37 130 l-24 66 106 150 c58 83 122 182 141 220 33 65 35 74 35
169 0 115 16 159 87 240 l41 47 -34 26 c-120 94 -198 251 -235 478 -9 54 -18
108 -20 120 -3 18 -17 23 -96 37 -157 28 -332 46 -504 53 l-164 7 0 -71 0 -71
59 -31 c66 -35 89 -57 135 -126 21 -33 42 -51 67 -60 19 -6 64 -32 100 -56 39
-27 85 -49 119 -56 83 -19 89 -26 41 -52 -48 -28 -42 -45 20 -55 36 -6 39 -9
39 -39 0 -20 -12 -51 -31 -79 -32 -49 -39 -53 -54 -38 -14 14 -186 35 -216 28
-34 -9 -69 -73 -69 -127 0 -35 6 -48 35 -77 28 -28 40 -34 58 -28 47 15 188
31 194 22 3 -5 0 -51 -7 -103 l-13 -94 -91 0 c-74 0 -97 -4 -121 -20 -58 -38
-140 -21 -222 46 -71 59 -98 132 -73 200 l10 26 -43 -6 c-43 -7 -44 -6 -40 18
3 14 11 31 19 37 24 20 15 27 -23 18 -53 -12 -55 -11 -48 11 5 16 2 20 -17 20
-33 0 -85 35 -109 72 -25 42 -20 100 13 135 29 31 102 69 151 78 40 8 48 22
20 32 -52 18 -45 28 32 39 42 7 79 15 82 18 4 3 -2 15 -12 26 -18 20 -18 20
68 20 78 0 87 2 87 19 0 51 -93 130 -153 131 -25 0 -27 -2 -17 -20 10 -18 8
-20 -19 -20 -17 0 -67 12 -113 26 -93 30 -151 34 -188 14 l-25 -14 30 -6 c35
-8 75 -28 75 -38 0 -4 -40 -5 -89 -4 -87 4 -89 3 -122 -27 -27 -24 -31 -33
-20 -40 9 -6 -8 -19 -61 -44 -47 -23 -90 -52 -114 -79 l-39 -43 33 -3 c17 -2
32 -8 32 -14 0 -6 -18 -28 -40 -50 -22 -22 -40 -42 -40 -44 0 -2 9 -4 20 -4
18 0 17 -4 -11 -51 -16 -28 -41 -73 -54 -100 l-25 -49 26 10 c14 6 35 10 47
10 20 0 20 -1 -5 -27 -31 -34 -72 -99 -83 -132 l-7 -24 28 20 c33 23 102 59
142 74 25 9 24 7 -10 -23 -20 -18 -68 -77 -107 -130 -44 -60 -87 -108 -113
-125 -24 -15 -45 -29 -48 -31 -11 -8 28 -22 60 -22 48 0 85 25 160 110 57 64
103 100 127 100 4 0 -24 -33 -63 -72 -119 -123 -159 -171 -145 -176 6 -2 29 8
51 22 l38 25 0 -44 c0 -24 5 -53 12 -64 10 -20 15 -16 63 56 29 42 68 88 87
102 l34 26 -22 -35 c-54 -82 -82 -154 -82 -210 1 -30 7 -66 14 -79 12 -22 14
-20 25 36 6 33 17 67 24 76 10 14 12 -6 12 -108 0 -117 -1 -124 -16 -104 -16
21 -18 17 -87 -125 l-71 -147 72 -139 c40 -77 75 -140 79 -140 3 0 39 42 79
92 l73 93 7 -35 c4 -19 9 -77 11 -130 l3 -95 -62 0 c-35 1 -144 2 -243 3
l-180 2 0 59 c0 49 9 79 50 174 28 63 50 120 50 126 0 7 -37 75 -82 153 l-81
140 -33 -52 c-18 -29 -35 -55 -38 -58 -3 -3 -34 22 -68 55 -35 33 -96 83 -135
112 -40 29 -73 56 -73 59 0 4 23 57 50 119 l51 111 -80 126 -80 125 50 31 c69
42 142 112 181 172 l32 51 42 -49 c24 -27 45 -46 48 -43 3 2 44 87 91 189 l85
184 -90 155 c-50 85 -87 158 -82 163 12 12 282 55 425 67 139 12 417 15 417 5
0 -4 -19 -40 -41 -81 -23 -41 -37 -78 -33 -82 5 -5 30 -13 56 -20 40 -9 51 -8
77 7 31 17 31 18 31 99 l0 82 38 4 c78 8 251 7 357 -3z m348 -854 l37 -55 -39
-61 -38 -62 -37 61 -37 61 33 55 c18 30 35 55 38 55 3 0 22 -25 43 -54z
m-2028 -580 c117 -55 348 -254 390 -336 31 -60 45 -160 45 -328 0 -229 -19
-555 -33 -564 -15 -9 -87 -21 -93 -15 -3 2 2 96 11 208 8 112 15 287 15 389
l0 186 -33 69 c-34 69 -126 193 -185 249 l-31 29 -43 -39 c-24 -22 -72 -60
-108 -83 -100 -67 -105 -79 -71 -175 l19 -54 -32 9 c-49 14 -107 60 -129 103
-28 53 -26 137 4 201 40 86 143 174 204 175 11 0 43 -11 70 -24z m2554 -119
l33 -62 -37 -63 -37 -64 -38 64 -39 63 21 35 c12 19 28 47 37 62 9 16 18 28
21 28 3 0 20 -28 39 -63z m-2369 -140 c68 -84 72 -91 66 -127 -5 -30 1 -55 29
-121 33 -75 35 -90 33 -163 l-3 -81 -155 -18 c-85 -10 -157 -20 -159 -23 -4
-3 37 -386 42 -390 1 -1 55 6 120 15 l117 18 0 -38 c0 -33 -14 -223 -24 -330
-2 -20 -13 -50 -24 -66 -21 -29 -21 -30 -1 -59 18 -27 19 -51 19 -451 0 -234
-4 -424 -9 -427 -24 -15 -147 -24 -197 -15 -45 8 -59 7 -91 -9 -45 -23 -71
-28 -217 -42 -59 -6 -126 -17 -147 -24 l-38 -13 -5 41 c-3 22 -7 159 -10 304
-3 185 -8 268 -17 278 -9 11 -10 55 -5 172 10 244 14 269 49 309 27 31 28 35
14 51 -25 28 -39 74 -38 131 0 29 2 55 4 58 3 2 58 7 123 12 86 6 149 17 229
41 61 18 111 33 112 34 1 1 -16 150 -37 331 -22 181 -38 331 -36 332 2 2 36
-37 77 -86 41 -50 77 -87 80 -83 4 4 25 64 49 134 l42 128 -66 118 c-36 65
-66 123 -66 129 0 7 10 19 22 27 26 18 15 28 118 -97z m1900 -589 l73 -122
-56 -106 -56 -105 -66 -3 -66 -3 -40 86 -40 86 47 62 c26 34 65 99 87 145 22
45 41 82 42 82 1 0 35 -55 75 -122z m342 93 c4 -4 30 -61 56 -126 l48 -120
-61 -105 c-61 -105 -61 -105 -100 -105 l-39 0 -42 105 c-23 58 -43 113 -43
122 -1 9 27 69 62 133 58 107 64 115 87 109 14 -3 28 -9 32 -13z m-1699 -160
l34 -58 -34 -57 c-19 -31 -38 -56 -41 -56 -8 0 -72 96 -72 108 0 8 69 122 75
122 1 0 18 -26 38 -59z m-551 -4 l36 -53 -36 -58 -36 -58 -28 34 c-55 67 -55
72 -14 133 20 30 38 55 40 55 2 0 19 -24 38 -53z m2218 -426 c162 -21 233 -39
257 -66 21 -24 25 -25 50 -12 16 8 33 13 38 11 6 -1 31 -5 58 -9 39 -5 50 -11
62 -35 l15 -29 35 23 35 24 92 -25 c51 -14 94 -26 94 -27 7 -6 26 -307 26
-413 1 -118 -1 -137 -19 -161 -19 -26 -19 -31 -4 -184 8 -87 12 -160 9 -163
-3 -3 -73 7 -155 23 -135 26 -155 32 -198 65 -26 20 -61 39 -79 41 -17 3 -263
17 -546 32 -466 24 -519 29 -558 47 -39 19 -48 20 -104 8 -68 -14 -343 -30
-518 -31 -88 0 -121 4 -138 15 -19 14 -24 14 -46 0 -17 -11 -94 -24 -247 -41
-123 -13 -236 -24 -251 -24 l-28 0 0 304 c0 189 -4 315 -11 334 -8 24 -7 37 5
59 11 22 46 173 46 199 0 2 35 4 78 4 55 0 84 -5 100 -16 21 -15 25 -15 42 1
24 21 194 44 331 45 89 0 98 -2 112 -22 l15 -23 31 23 c29 21 44 23 288 31
317 11 967 6 1083 -8z m-654 -1017 c37 -4 46 -11 78 -59 40 -61 65 -80 116
-90 48 -10 127 -53 144 -80 13 -19 20 -54 17 -79 -1 -4 -10 2 -21 15 l-19 24
12 -33 c11 -30 10 -35 -7 -48 -29 -21 -55 -17 -66 10 -13 35 -35 46 -27 14 11
-42 -14 -53 -113 -52 -107 0 -140 17 -192 96 -22 33 -75 88 -125 130 -141 117
-174 148 -161 153 36 13 258 12 364 -1z m-361 -58 l50 -45 -53 -75 c-28 -42
-52 -78 -52 -80 0 -7 151 -256 154 -256 2 0 34 47 72 105 38 57 72 105 75 105
3 0 13 -16 22 -35 l17 -35 -93 -94 c-92 -93 -213 -177 -259 -179 -28 -2 -202
101 -323 190 -73 54 -100 68 -153 79 -87 18 -121 42 -180 127 -28 41 -59 80
-68 88 -24 20 -94 109 -94 120 0 20 24 7 74 -41 58 -55 66 -53 66 14 l0 33 73
6 c39 4 100 9 134 13 l61 7 12 -59 c7 -33 23 -80 37 -106 l26 -47 71 5 c95 8
144 -9 171 -58 17 -31 17 -40 6 -64 l-13 -29 -14 25 -13 25 -1 -24 c0 -24 -25
-61 -42 -61 -4 0 -8 13 -8 29 0 16 -6 33 -13 39 -9 8 -11 0 -8 -35 l3 -46 -68
7 -68 7 48 -37 c26 -20 93 -65 149 -101 l102 -64 6 298 c3 164 7 302 8 306 2
11 30 -7 86 -57z m664 34 c74 -5 136 -12 138 -14 2 -2 -16 -19 -41 -39 l-44
-37 -23 35 c-13 19 -27 35 -30 35 -3 0 -15 -18 -28 -40 -18 -32 -28 -40 -51
-40 -16 0 -35 3 -44 6 -13 5 -86 96 -86 108 0 2 17 2 38 0 20 -2 97 -9 171
-14z"/>
<path d="M2866 5712 c-3 -6 -39 -84 -80 -175 l-73 -165 19 -31 20 -31 45 40
c25 22 64 45 85 52 32 9 43 19 55 50 8 21 23 44 33 51 17 12 16 19 -24 112
-40 93 -64 122 -80 97z"/>
<path d="M2428 4739 l-76 -162 85 -128 c48 -71 89 -129 93 -129 3 0 29 33 58
74 48 68 50 74 36 95 -8 11 -25 21 -37 21 -23 0 -97 45 -97 58 0 4 20 18 44
30 24 13 58 37 75 54 28 28 30 33 18 52 -8 12 -38 59 -67 106 -29 47 -53 86
-54 87 -1 2 -36 -70 -78 -158z"/>
<path d="M1980 2958 c-35 -18 -76 -45 -90 -60 -38 -37 -115 -192 -129 -256
-16 -75 -14 -264 4 -365 26 -147 113 -363 159 -391 13 -9 30 -3 79 23 136 74
156 82 213 88 97 9 127 42 83 89 -29 31 -47 204 -30 288 7 32 10 61 7 64 -3 3
-66 -3 -138 -14 l-133 -19 -3 -28 c-3 -29 -3 -29 44 -25 l48 3 -3 -51 c-2 -36
2 -54 13 -63 13 -11 16 -36 16 -121 0 -92 -3 -109 -19 -124 -17 -16 -21 -15
-63 27 -48 46 -88 121 -107 202 -7 28 -22 60 -33 72 -19 21 -20 29 -14 155 8
143 29 311 47 368 14 44 37 70 60 70 20 0 94 -80 116 -126 14 -29 14 -35 -1
-64 -9 -18 -16 -35 -16 -37 0 -2 24 9 52 23 29 15 80 54 113 88 l59 61 -31 5
c-20 3 -60 30 -114 78 -49 42 -91 72 -104 72 -12 0 -51 -15 -85 -32z"/>
<path d="M3565 2899 c-38 -23 -72 -43 -74 -44 -2 -2 -7 -41 -12 -87 -7 -78
-10 -85 -43 -114 -42 -36 -49 -63 -11 -38 24 15 25 15 34 -7 4 -13 12 -76 16
-141 6 -99 4 -121 -10 -152 -18 -37 -29 -44 -40 -25 -8 12 -55 -27 -55 -46 0
-15 64 -45 98 -45 78 0 103 69 109 305 l5 170 36 30 c20 17 45 38 55 49 19 18
20 18 41 -3 l21 -22 -43 -37 c-40 -35 -42 -38 -26 -54 24 -24 24 -236 0 -273
-18 -27 -24 -24 93 -40 l43 -6 -6 33 c-15 77 -18 276 -6 328 11 46 11 55 -2
64 -10 7 -13 23 -11 46 6 49 -11 90 -38 90 -15 0 -19 5 -15 15 3 10 -1 15 -12
15 -9 0 -30 7 -46 15 -15 8 -29 15 -30 15 0 0 -32 -19 -71 -41z"/>
<path d="M3292 2888 c-68 -39 -80 -58 -88 -144 -6 -65 -9 -71 -40 -92 -43 -28
-43 -37 -1 -37 l32 0 3 -159 c2 -108 -1 -163 -9 -172 -16 -19 -69 -18 -69 1 0
18 -12 19 -28 3 -21 -21 -13 -36 32 -68 54 -37 75 -38 116 -4 60 51 64 70 61
270 l-2 182 35 6 c35 7 66 37 66 64 0 10 -6 12 -17 7 -10 -5 -33 -10 -50 -13
l-33 -4 0 45 c0 45 16 97 30 97 4 0 13 -13 20 -30 7 -16 15 -30 18 -30 14 0
72 53 72 65 0 17 -50 45 -77 44 -10 0 -42 -14 -71 -31z"/>
<path d="M4388 2841 c26 -22 34 -38 38 -77 8 -62 -8 -79 -70 -75 -35 2 -49 -3
-76 -25 -49 -41 -60 -79 -60 -196 0 -110 10 -164 38 -198 16 -20 19 -20 52 -6
42 17 144 12 204 -10 21 -8 41 -13 43 -10 2 2 -3 19 -13 38 -15 28 -18 62 -18
218 -1 280 14 360 65 347 23 -6 25 8 3 17 -9 3 -66 6 -127 6 l-112 -1 33 -28z
m26 -247 c24 -64 -17 -269 -53 -262 -38 7 -49 184 -15 250 16 31 58 39 68 12z"/>
<path d="M2895 2724 c-10 -8 -43 -22 -72 -31 -29 -9 -53 -20 -53 -24 0 -4 23
-59 50 -122 60 -137 66 -193 24 -226 -34 -27 -116 -53 -188 -60 l-59 -6 43
-42 c23 -24 49 -43 56 -43 27 0 150 88 198 141 26 29 70 96 96 149 26 52 69
130 94 174 26 43 45 80 44 82 -2 2 -26 -8 -53 -21 -26 -14 -56 -25 -65 -25
-13 0 -19 -11 -23 -40 -10 -80 -45 -91 -76 -27 -25 52 -27 93 -5 105 9 5 15
14 13 20 -3 7 -11 6 -24 -4z"/>
<path d="M2510 2664 l-62 -59 26 -9 26 -10 0 -126 c0 -97 -3 -131 -16 -148
-15 -22 -14 -22 23 -22 41 0 111 14 121 24 3 4 0 12 -6 18 -15 15 -17 298 -3
298 13 0 51 -50 51 -67 0 -19 35 0 56 32 14 21 14 26 0 54 -9 16 -25 36 -37
44 -18 13 -24 13 -50 -1 -29 -16 -30 -16 -48 7 l-19 25 -62 -60z"/>
<path d="M3922 2673 c-58 -42 -62 -46 -48 -62 13 -14 16 -42 16 -127 0 -97 -3
-114 -25 -151 -13 -24 -21 -43 -18 -43 8 0 147 42 152 46 2 2 -2 17 -9 34 -9
22 -10 59 -5 136 6 95 9 106 29 113 16 7 23 4 29 -13 9 -21 1 -260 -10 -305
-5 -21 -3 -22 18 -15 13 5 53 8 89 8 l64 -2 -25 22 -26 22 5 156 c6 195 3 208
-44 208 -19 0 -52 -9 -74 -20 -50 -25 -48 -26 -52 9 l-3 30 -63 -46z"/>
<path d="M4642 2640 c-43 -26 -56 -62 -71 -193 l-13 -107 26 -44 c29 -49 75
-76 130 -76 29 0 46 9 80 40 66 61 75 88 67 195 -8 103 -15 118 -71 168 -47
44 -95 49 -148 17z m102 -85 c26 -52 27 -183 3 -238 -14 -34 -19 -37 -37 -27
-27 14 -34 48 -34 160 1 98 15 155 37 148 6 -2 21 -22 31 -43z"/>
<path d="M4975 2640 c-22 -11 -51 -28 -64 -39 -23 -17 -23 -18 -6 -51 15 -29
17 -51 11 -155 -7 -109 -10 -122 -32 -146 l-25 -27 93 -5 c51 -3 104 -8 118
-12 l25 -6 -26 23 c-15 13 -32 33 -38 45 -14 27 -15 247 -1 274 17 31 38 23
46 -17 8 -43 26 -52 59 -30 31 20 33 58 5 104 -25 40 -44 49 -81 35 -26 -10
-29 -9 -29 8 0 24 -6 24 -55 -1z"/>
</g>
</svg>
