<?xml version="1.0" standalone="no"?>
<!DOCTYPE svg PUBLIC "-//W3C//DTD SVG 20010904//EN"
 "http://www.w3.org/TR/2001/REC-SVG-20010904/DTD/svg10.dtd">
<svg version="1.0" xmlns="http://www.w3.org/2000/svg"
 width="690.000000pt" height="690.000000pt" viewBox="0 0 690.000000 690.000000"
 preserveAspectRatio="xMidYMid meet">
<metadata>
Created by potrace 1.15, written by Peter Selinger 2001-2017
</metadata>
<g transform="translate(0.000000,690.000000) scale(0.100000,-0.100000)"
fill="#eee117" stroke="none">
<path d="M3611 5962 c-30 -43 -146 -117 -221 -143 -50 -17 -96 -23 -198 -27
l-134 -4 7 -27 c3 -14 8 -33 11 -42 3 -12 -14 -19 -88 -33 -137 -25 -385 -89
-531 -136 -128 -41 -395 -144 -409 -158 -4 -4 4 -36 18 -71 23 -56 25 -75 22
-155 -2 -72 -9 -103 -29 -147 -47 -100 -131 -174 -232 -204 l-42 -13 3 -58
c13 -235 170 -1154 198 -1154 6 0 58 14 115 30 57 17 128 33 157 36 61 8 59 2
41 160 -6 53 -8 99 -5 102 8 8 216 -199 216 -215 0 -8 -9 -31 -20 -52 l-19
-38 -173 -5 c-136 -4 -186 -10 -235 -26 -88 -28 -148 -66 -182 -115 -62 -90
-100 -107 -237 -107 l-93 0 4 -27 c24 -150 26 -171 15 -218 -7 -31 -9 -85 -4
-142 4 -62 3 -93 -4 -93 -6 0 -35 -23 -66 -51 -93 -85 -137 -215 -99 -289 23
-45 90 -80 155 -80 l48 0 -5 -42 c-13 -104 -35 -343 -35 -369 l0 -29 168 0
169 0 13 -72 c45 -253 176 -445 411 -600 157 -105 212 -127 669 -268 257 -80
347 -143 532 -373 l47 -57 57 72 c142 180 247 268 401 339 111 52 212 80 438
124 221 43 322 73 428 128 183 94 282 239 340 495 18 82 21 127 21 292 -1 107
-6 247 -12 310 -17 164 -27 440 -16 440 4 0 28 -8 52 -17 l44 -16 -7 -197 c-7
-171 -5 -201 9 -231 32 -68 131 -105 212 -79 90 29 126 96 132 250 2 58 -1
139 -6 180 -53 388 -53 384 14 532 71 157 80 237 38 320 -53 104 -174 208
-340 291 l-90 45 46 410 46 409 -74 77 c-49 52 -84 100 -105 144 -30 63 -32
73 -32 182 0 113 5 134 50 251 11 29 -146 96 -386 163 -128 36 -373 92 -538
123 l-93 17 6 42 5 41 -102 6 c-56 4 -129 14 -162 23 -76 20 -187 75 -245 122
-25 19 -50 39 -57 44 -7 6 -18 -1 -32 -20z m504 -637 c289 -39 563 -109 647
-167 18 -12 31 -34 38 -61 39 -155 91 -272 180 -406 54 -80 60 -94 60 -140 0
-96 -52 -508 -70 -557 -8 -19 -19 -21 -147 -27 -157 -8 -307 -28 -430 -57 -47
-11 -91 -17 -98 -13 -7 5 -81 74 -165 156 -128 124 -148 147 -127 147 14 0 29
-4 32 -10 11 -17 33 -11 40 10 13 41 -23 58 -76 36 -13 -6 -16 1 -17 35 -1 24
-9 54 -18 67 -16 25 -17 25 -31 6 -7 -10 -16 -35 -19 -56 -6 -35 -8 -36 -28
-23 -11 7 -70 32 -131 55 -60 22 -121 49 -136 59 -22 16 -28 17 -44 5 -26 -19
-49 -18 -69 5 -16 17 -16 20 1 49 14 25 15 34 5 57 -12 27 -15 28 -73 21 -68
-7 -77 8 -21 33 18 8 32 18 32 23 0 21 -132 258 -143 258 -2 0 -1 -16 1 -35 5
-41 -12 -46 -46 -15 -24 23 -29 39 -35 119 -5 58 -33 95 -66 89 -9 -2 -36 -43
-61 -93 l-45 -90 -101 -36 c-55 -20 -121 -48 -146 -63 l-45 -26 -104 34 c-57
19 -129 38 -160 41 l-56 7 -14 -79 c-20 -113 -16 -299 10 -397 19 -72 76 -200
136 -305 48 -84 24 -129 -34 -64 -74 82 -207 246 -236 291 l-30 46 2 149 c1
82 5 152 8 155 3 3 27 -16 54 -42 l49 -48 6 48 c19 162 19 198 -3 226 l-22 27
33 150 c18 83 36 151 40 151 4 0 67 -71 141 -157 185 -218 163 -203 236 -154
34 23 61 45 61 49 0 4 -55 77 -121 162 -128 163 -175 228 -168 234 2 2 48 18
102 36 83 27 101 30 111 19 49 -54 170 -185 219 -237 l60 -63 29 35 c16 20 38
36 49 36 26 0 100 -69 153 -144 23 -33 82 -127 131 -208 48 -81 108 -173 133
-205 l46 -57 9 29 c5 17 11 222 14 458 l5 427 27 6 c14 3 31 8 36 10 21 8 284
-5 400 -21z m-821 1 c36 -15 105 -106 245 -322 l71 -108 0 -155 c0 -86 -4
-162 -9 -169 -10 -17 -111 111 -286 363 -66 94 -152 216 -192 273 -46 65 -68
104 -60 107 70 26 183 31 231 11z m-726 -648 c9 -7 28 -26 41 -42 37 -42 79
-56 206 -65 107 -8 120 -12 207 -54 51 -25 114 -64 141 -87 42 -37 47 -46 47
-82 0 -37 -6 -46 -57 -94 -43 -39 -55 -56 -47 -64 15 -15 78 -29 129 -30 35 0
45 -6 96 -60 67 -72 126 -101 208 -102 75 -1 112 20 158 92 l35 55 -6 -40 c-7
-50 -51 -112 -96 -137 -30 -16 -46 -18 -105 -12 -38 4 -151 8 -250 8 -203 1
-270 15 -329 66 -48 42 -64 82 -80 202 -8 57 -20 117 -26 133 -13 34 -58 85
-75 85 -6 0 -18 -12 -27 -27 -9 -16 -39 -55 -67 -87 -79 -93 -78 -119 10 -212
44 -47 81 -125 66 -140 -28 -28 -152 67 -192 147 -55 107 -77 212 -82 386 -3
89 -3 168 0 177 4 11 14 12 42 6 19 -4 43 -14 53 -22z m613 -74 c64 -30 91
-50 131 -97 28 -32 97 -99 154 -148 156 -136 171 -168 89 -183 -29 -6 -35 -11
-35 -32 l0 -24 -39 20 c-49 24 -71 56 -115 160 -53 124 -70 144 -191 225 -60
40 -121 85 -135 100 l-25 28 43 -6 c23 -3 78 -22 123 -43z m1998 -688 c96 -24
195 -71 302 -141 145 -96 209 -179 209 -268 0 -49 -13 -90 -66 -215 -47 -110
-51 -159 -29 -401 10 -111 16 -204 12 -207 -3 -4 -48 29 -99 71 -169 142 -262
170 -553 162 -203 -6 -279 -15 -610 -78 -400 -76 -766 -179 -1427 -400 -229
-76 -420 -139 -423 -139 -14 0 4 909 20 972 5 20 33 32 193 87 103 35 191 67
195 71 5 4 0 25 -11 47 -63 122 -39 278 50 333 39 24 220 68 330 80 83 10 188
4 188 -10 0 -12 -34 -18 -160 -30 -302 -29 -410 -96 -410 -255 0 -101 59 -168
115 -131 28 19 31 33 10 60 -17 22 -21 91 -5 81 6 -3 10 -17 10 -30 0 -37 10
-55 41 -71 21 -11 34 -12 48 -4 27 14 30 30 14 69 -18 43 -9 52 11 12 20 -38
48 -53 81 -45 30 7 30 7 8 42 l-17 27 22 -19 c12 -10 29 -16 39 -13 10 2 146
44 303 91 512 156 839 233 1150 270 84 10 397 -3 459 -18z m-2993 -523 c-31
-108 -31 -105 11 -101 29 2 39 8 41 23 7 47 13 65 28 79 27 27 36 18 32 -30
l-3 -47 48 -14 c78 -23 82 -39 83 -333 1 -135 3 -353 4 -485 1 -132 -1 -266
-5 -297 -7 -52 -10 -58 -39 -69 -45 -17 -375 -24 -507 -10 -114 12 -159 24
-159 41 0 12 90 57 203 100 48 18 87 37 87 42 0 5 -9 27 -21 50 -30 58 -49
270 -28 313 18 39 70 45 127 16 39 -20 41 -22 47 -83 10 -103 -9 -271 -38
-326 -13 -26 -28 -58 -32 -71 -7 -22 -5 -24 23 -18 17 3 69 29 117 56 48 27
103 52 123 56 67 11 68 15 23 99 -50 94 -54 143 -16 199 14 20 30 37 35 37 21
0 9 34 -25 71 l-35 39 0 153 c1 140 10 258 26 321 6 24 5 25 -33 19 -85 -13
-231 -90 -219 -116 48 -110 58 -145 59 -211 0 -39 -3 -86 -8 -105 l-7 -33 -56
4 c-47 4 -60 10 -84 37 -27 31 -28 34 -28 149 1 139 10 194 40 233 12 17 20
34 18 38 -5 14 -102 -16 -202 -63 -104 -49 -111 -58 -81 -117 11 -21 15 -52
13 -107 -3 -85 1 -82 -79 -61 l-36 9 -5 103 c-6 111 6 295 20 309 5 5 57 12
116 15 l106 6 12 44 c10 41 41 73 56 58 3 -3 0 -26 -6 -52 -14 -52 -7 -66 29
-61 19 2 27 14 39 49 17 52 36 79 56 79 17 0 17 -6 0 -62 -15 -51 -12 -62 22
-72 24 -8 27 -4 36 55 8 45 41 89 66 89 18 0 18 -3 6 -47z m2508 -589 c3 -9 6
-81 6 -160 0 -85 4 -144 10 -144 5 0 31 13 57 28 112 66 204 81 244 41 18 -18
21 -30 17 -81 -4 -49 -16 -82 -73 -191 l-68 -132 -7 -150 c-9 -175 -29 -244
-86 -294 -19 -17 -40 -31 -46 -31 -6 0 -43 19 -82 43 -39 24 -79 46 -89 50
-19 7 -187 -61 -187 -75 0 -4 20 -32 45 -62 l45 -56 -38 -19 c-50 -26 -156
-61 -182 -61 -11 0 -47 25 -81 56 -74 68 -124 90 -247 110 -104 17 -126 25
-142 54 -16 29 -13 45 5 30 18 -15 17 -15 39 25 l16 30 -6 -41 c-11 -73 45
-72 76 1 10 23 23 46 29 49 14 9 15 -6 2 -19 -6 -6 -13 -29 -17 -52 l-7 -43
37 0 c32 0 38 4 53 35 20 43 36 46 21 5 -16 -48 -5 -63 45 -57 23 3 65 10 92
16 28 6 85 17 127 25 161 30 272 110 401 289 40 54 95 131 124 170 59 81 142
243 150 291 7 44 -18 70 -60 60 -16 -3 -83 -35 -147 -70 -64 -35 -120 -64
-123 -64 -13 0 -8 385 5 398 17 17 35 15 42 -4z m824 -99 c2 -1 0 -33 -4 -69
l-7 -67 -48 6 c-28 4 -56 2 -68 -5 -21 -11 -21 -9 -21 110 l0 120 73 -46 c39
-26 73 -48 75 -49z m-3779 49 c9 -8 31 -144 37 -230 8 -107 -7 -207 -41 -273
-25 -49 -81 -109 -91 -98 -13 13 -21 154 -12 227 5 41 22 106 39 145 36 86 37
118 4 147 -19 16 -25 31 -25 61 l0 39 43 -7 c23 -4 44 -9 46 -11z m3870 -184
c15 -49 14 -84 -3 -123 -46 -108 -189 -115 -232 -10 -26 61 11 113 73 101 13
-2 19 -14 21 -46 3 -38 5 -41 22 -32 30 16 48 61 56 135 l7 68 22 -27 c13 -16
28 -45 34 -66z m-1838 -13 c30 -20 160 -175 240 -287 43 -60 57 -86 49 -94
-27 -26 -235 0 -357 46 -40 15 -60 30 -89 69 -50 68 -95 100 -149 107 -47 5
-75 29 -75 64 0 20 25 34 136 79 127 50 187 54 245 16z m-657 -265 c45 -103
47 -148 9 -187 -35 -35 -96 -62 -101 -45 -2 6 -14 23 -27 38 -21 25 -23 25
-32 6 -6 -10 -14 -38 -18 -62 -7 -42 -8 -42 -39 -37 -45 9 -63 -13 -46 -55 8
-19 10 -50 6 -87 l-7 -58 26 30 25 30 -9 -30 c-15 -56 14 -77 44 -31 9 13 24
27 33 31 12 5 11 1 -5 -17 -12 -13 -23 -32 -25 -43 -3 -17 6 -21 67 -30 57 -8
70 -13 69 -27 -4 -81 -1 -77 -38 -71 -26 4 -35 1 -40 -13 -10 -26 18 -51 38
-35 28 23 49 5 43 -34 -4 -27 -2 -37 11 -44 29 -15 49 8 44 52 -4 31 -1 37 15
37 10 0 24 -5 31 -12 16 -16 35 3 30 28 -3 15 -12 19 -41 17 -35 -2 -37 -1
-37 26 0 16 -3 36 -6 45 -5 13 2 16 42 16 61 1 194 24 225 40 13 6 50 39 81
73 l57 62 1 -337 c0 -267 -3 -338 -13 -338 -7 0 -28 13 -47 28 -98 80 -182
113 -450 178 -102 24 -221 56 -265 70 -192 63 -332 166 -398 291 -35 67 -73
205 -62 224 4 5 25 9 47 9 22 0 59 5 80 12 46 14 58 36 58 106 l0 47 293 91
c160 50 293 91 293 90 1 0 18 -38 38 -84z m579 -532 c85 -81 308 -321 315
-338 1 -4 -30 -19 -69 -34 l-71 -26 -96 90 c-54 50 -118 107 -144 126 l-48 36
0 118 c0 69 4 118 10 118 5 0 52 -40 103 -90z"/>
<path d="M3890 5121 c-5 -11 -10 -38 -10 -61 0 -36 -2 -41 -17 -35 -43 17 -56
18 -69 0 -26 -36 22 -75 54 -43 22 22 44 -11 33 -49 -8 -27 -6 -34 12 -46 19
-12 25 -12 43 0 18 12 21 21 16 58 -4 40 -2 45 16 45 12 0 24 -4 27 -10 3 -5
15 -10 26 -10 16 0 20 6 17 28 -3 25 -6 27 -45 26 -42 -1 -43 0 -43 32 0 67
-37 107 -60 65z"/>
<path d="M4250 5121 c-5 -11 -10 -38 -10 -61 0 -36 -2 -41 -17 -35 -43 18 -61
17 -73 -5 -9 -16 -9 -25 1 -36 13 -16 45 -19 54 -4 9 15 32 12 38 -4 3 -8 2
-28 -3 -45 -7 -25 -5 -32 13 -44 19 -12 25 -12 43 0 18 12 21 21 16 58 -4 40
-2 45 15 45 10 0 24 -5 30 -11 16 -16 43 -3 43 20 0 25 -29 41 -55 30 -32 -13
-35 -11 -35 26 0 68 -37 109 -60 66z"/>
<path d="M4591 5109 c-6 -18 -11 -45 -11 -60 0 -32 -3 -34 -31 -18 -30 15 -59
2 -59 -27 0 -30 24 -41 55 -24 34 18 48 4 42 -43 -7 -50 13 -71 50 -54 21 9
23 15 17 54 -5 35 -3 44 11 49 9 4 21 2 28 -5 27 -27 64 -2 50 35 -5 13 -16
15 -50 11 l-43 -5 0 34 c0 77 -38 111 -59 53z"/>
<path d="M3772 4725 c-7 -14 -12 -44 -12 -66 0 -36 -2 -39 -19 -29 -29 15 -68
12 -75 -6 -13 -33 31 -73 49 -44 3 6 15 10 26 10 18 0 20 -6 18 -46 -4 -55 17
-75 56 -54 19 10 22 18 18 46 -3 18 -3 41 1 50 6 15 8 15 32 -1 32 -21 54 -13
54 19 0 30 -36 44 -69 26 -20 -10 -21 -8 -21 25 0 37 -24 95 -39 95 -4 0 -13
-11 -19 -25z"/>
<path d="M4431 4736 c-8 -9 -16 -38 -19 -65 -4 -48 -4 -48 -32 -38 -36 14 -60
3 -60 -27 0 -26 27 -43 44 -26 15 15 46 12 52 -5 3 -8 2 -28 -4 -44 -9 -25 -7
-30 13 -41 17 -9 28 -9 44 -1 18 10 20 17 15 52 -8 50 8 65 44 41 23 -15 25
-15 38 2 28 39 -19 71 -67 46 -17 -10 -19 -7 -19 34 0 27 -7 52 -18 66 -16 20
-19 21 -31 6z"/>
<path d="M4774 4713 c-9 -20 -14 -47 -11 -60 4 -22 2 -24 -22 -18 -43 12 -53
11 -65 -7 -8 -14 -8 -22 0 -35 12 -18 17 -19 68 -7 l29 7 -6 -46 c-6 -40 -4
-48 13 -57 14 -8 26 -8 41 0 17 10 19 17 14 54 -6 35 -4 44 11 50 10 4 24 0
36 -11 18 -16 20 -16 36 0 27 27 4 52 -45 50 -39 -1 -39 -1 -42 39 -2 45 -16
78 -32 78 -5 0 -17 -17 -25 -37z"/>
<path d="M4090 4714 c-6 -14 -10 -40 -10 -59 l0 -33 -36 11 c-32 10 -38 9 -50
-7 -9 -13 -10 -24 -3 -37 10 -20 44 -26 54 -9 10 16 33 11 40 -9 3 -10 1 -30
-4 -44 -8 -21 -6 -28 12 -40 19 -12 25 -12 43 0 18 12 21 21 16 58 -4 40 -2
45 16 45 12 0 24 -4 27 -10 3 -5 15 -10 26 -10 14 0 19 7 19 29 0 34 -19 45
-56 31 -35 -14 -34 -14 -34 25 0 72 -40 112 -60 59z"/>
<path d="M4262 4335 c-7 -14 -12 -42 -12 -62 0 -24 -4 -34 -12 -30 -45 16 -57
17 -72 2 -20 -20 -20 -29 0 -49 14 -14 18 -14 45 -1 26 14 30 14 35 0 4 -9 4
-31 1 -49 -7 -41 19 -62 56 -45 21 10 24 16 20 54 -6 50 6 62 41 40 30 -20 46
-13 46 21 0 30 -24 41 -61 27 -29 -11 -29 -11 -29 25 0 39 -18 83 -36 89 -6 2
-16 -8 -22 -22z"/>
<path d="M4630 4335 c-7 -9 -15 -37 -18 -64 -4 -48 -4 -48 -32 -38 -37 14 -60
3 -60 -28 0 -31 23 -42 55 -25 13 7 28 9 34 6 13 -9 14 -46 1 -66 -7 -11 -4
-19 12 -31 19 -15 24 -15 44 -3 18 13 21 21 16 59 -4 40 -2 45 16 45 12 0 24
-4 27 -10 10 -16 34 -11 45 9 7 15 6 24 -7 36 -15 16 -27 16 -64 1 -14 -6 -17
2 -21 44 -6 61 -27 90 -48 65z"/>
<path d="M3007 4408 c-62 -37 -63 -88 -2 -113 76 -33 145 -10 145 48 -1 74
-73 107 -143 65z"/>
<path d="M4904 3849 c-42 -21 -58 -67 -64 -184 -4 -60 -10 -117 -14 -126 -5
-11 1 -19 18 -27 22 -10 25 -19 32 -89 10 -104 -7 -230 -38 -290 -21 -42 -65
-84 -100 -95 -7 -3 -5 -15 6 -36 47 -91 159 -40 208 94 20 53 22 79 23 252 0
173 2 193 17 198 18 5 58 51 58 65 0 5 -20 9 -45 9 l-45 0 0 50 c0 28 0 53 0
58 -1 14 52 13 69 -2 16 -15 20 -13 45 13 23 24 26 32 16 48 -33 53 -137 87
-186 62z"/>
<path d="M5184 3801 c-47 -28 -67 -82 -71 -186 -3 -49 -9 -100 -15 -111 -7
-16 -6 -29 6 -51 22 -43 32 -222 17 -296 -10 -44 -19 -63 -41 -79 -40 -29 -44
-54 -11 -77 100 -71 155 -11 171 189 5 61 6 148 3 194 -4 56 -2 85 5 90 7 4
34 10 61 13 49 6 50 5 56 -23 3 -16 10 -36 14 -44 10 -20 58 -46 67 -37 13 13
16 104 4 126 -15 28 -79 57 -145 66 l-50 6 3 59 c4 57 5 59 24 49 11 -6 23
-20 25 -30 7 -24 35 -24 57 0 22 24 15 50 -26 97 -33 38 -76 64 -105 64 -10 0
-32 -9 -49 -19z"/>
<path d="M4650 3630 c-36 -22 -71 -43 -78 -47 -10 -6 -10 -24 -1 -88 13 -94 7
-192 -14 -213 -14 -13 -18 -12 -40 11 -35 34 -42 85 -29 206 7 58 9 107 7 110
-3 3 -35 -9 -70 -27 l-65 -32 0 -83 c0 -120 18 -248 38 -270 13 -15 26 -17 62
-13 25 4 87 10 139 15 89 8 96 10 123 40 27 30 27 33 12 55 -8 14 -22 27 -30
30 -19 7 -20 249 -1 286 20 39 27 60 19 60 -4 -1 -36 -19 -72 -40z"/>
<path d="M4036 3547 c-57 -57 -58 -60 -50 -95 5 -21 8 -155 8 -299 -2 -219 -4
-270 -18 -304 l-17 -42 32 7 c74 15 189 81 189 110 0 5 -12 23 -27 39 -26 26
-28 35 -28 109 l0 81 70 23 c86 28 121 62 131 131 10 66 -10 172 -45 241 l-29
57 -78 0 -79 0 -59 -58z m154 -71 c14 -29 23 -73 27 -129 l6 -84 -39 -27 c-21
-14 -43 -26 -47 -26 -5 0 -7 61 -5 138 6 183 18 209 58 128z"/>
<path d="M3518 3505 l-67 -65 14 -41 c13 -35 14 -81 9 -253 -6 -192 -8 -216
-30 -264 -13 -29 -20 -51 -16 -49 4 3 45 26 92 52 47 26 86 49 88 50 1 1 -4
21 -13 44 -12 35 -13 88 -8 316 3 151 4 275 2 275 -2 0 -34 -29 -71 -65z"/>
<path d="M3295 3518 c-11 -6 -36 -26 -56 -45 -32 -30 -39 -33 -63 -23 -40 15
-72 12 -116 -10 -58 -29 -91 -92 -101 -191 -4 -46 -15 -92 -25 -106 -9 -15
-48 -40 -95 -61 l-78 -36 6 -122 c5 -105 4 -127 -11 -148 -9 -14 -21 -26 -27
-26 -23 0 -39 70 -39 171 l0 102 -32 -7 c-18 -3 -42 -13 -55 -22 -24 -15 -24
-15 -17 -172 5 -126 9 -162 23 -182 25 -34 56 -36 102 -6 42 29 59 32 76 15
17 -17 37 -6 69 36 27 35 27 39 25 159 -3 148 2 172 40 192 l29 15 0 -211 0
-211 -40 -39 c-22 -22 -40 -47 -40 -56 0 -14 7 -16 47 -10 58 8 107 40 130 86
16 31 18 62 15 263 l-3 227 46 44 c27 26 45 53 45 66 0 22 -3 22 -55 16 l-55
-6 0 42 c0 63 9 72 69 66 43 -4 53 -2 62 13 5 11 14 19 19 19 14 0 11 -90 -4
-125 -11 -26 -10 -34 7 -63 19 -32 20 -46 14 -231 -8 -211 -15 -256 -47 -278
-30 -21 -26 -53 6 -53 49 0 92 29 115 78 20 40 24 72 33 269 l11 223 43 45
c56 58 55 75 -3 75 l-45 0 0 39 c0 43 13 58 58 67 30 6 42 25 42 69 0 41 -80
68 -125 43z"/>
<path d="M3763 3410 c-71 -43 -116 -154 -117 -285 0 -105 19 -156 73 -192 59
-40 138 -22 186 41 36 47 41 80 16 105 -12 12 -25 21 -31 21 -5 0 -21 -22 -34
-48 -13 -27 -31 -54 -40 -61 -12 -10 -17 -7 -32 21 -9 18 -19 62 -21 98 l-5
65 62 19 c101 31 144 93 115 163 -16 39 -68 73 -110 73 -16 0 -44 -9 -62 -20z"/>
<path d="M2592 2085 c-7 -14 -12 -41 -12 -60 0 -33 0 -34 -30 -23 -40 13 -60
4 -60 -27 0 -31 23 -42 55 -25 35 19 48 5 41 -44 -5 -34 -3 -43 13 -53 14 -9
23 -9 39 3 16 11 19 21 15 54 -4 31 -2 41 11 46 10 4 22 2 29 -5 16 -16 44
-14 51 4 7 19 -3 45 -18 46 -18 2 -20 2 -48 -5 -27 -6 -28 -5 -28 34 0 73 -35
106 -58 55z"/>
<path d="M2771 1733 c-6 -12 -11 -38 -11 -57 0 -34 -1 -35 -24 -24 -32 14 -56
4 -56 -22 0 -25 25 -37 45 -20 22 18 37 1 33 -35 -5 -40 21 -62 50 -44 13 8
16 21 14 50 -4 40 11 52 35 28 14 -14 43 -5 43 14 0 27 -28 41 -55 29 -24 -11
-25 -10 -25 22 0 19 -8 44 -19 57 l-18 23 -12 -21z"/>
<path d="M3390 1705 c-7 -20 -9 -42 -6 -50 4 -12 -2 -14 -33 -9 -43 7 -59 -11
-36 -42 11 -15 15 -16 29 -5 27 22 49 6 43 -32 -6 -40 18 -63 46 -42 12 9 15
21 10 48 -5 32 -3 37 14 37 10 0 24 -5 31 -12 16 -16 35 3 30 28 -3 15 -12 19
-41 17 -37 -2 -37 -2 -37 35 0 35 -14 62 -31 62 -4 0 -13 -16 -19 -35z"/>
</g>
</svg>
