<?xml version="1.0" standalone="no"?>
<!DOCTYPE svg PUBLIC "-//W3C//DTD SVG 20010904//EN"
 "http://www.w3.org/TR/2001/REC-SVG-20010904/DTD/svg10.dtd">
<svg version="1.0" xmlns="http://www.w3.org/2000/svg"
 width="690.000000pt" height="690.000000pt" viewBox="0 0 690.000000 690.000000"
 preserveAspectRatio="xMidYMid meet">
<metadata>
Created by potrace 1.15, written by Peter Selinger 2001-2017
</metadata>
<g transform="translate(0.000000,690.000000) scale(0.100000,-0.100000)"
fill="#946b2d" stroke="none">
<path d="M3574 6325 c4 -11 17 -63 28 -115 17 -76 21 -129 21 -270 0 -255 -38
-456 -132 -692 -27 -68 -57 -151 -66 -185 -15 -54 -20 -61 -35 -53 -13 7 -25
4 -44 -11 -80 -63 -119 -249 -74 -361 15 -39 23 -35 38 17 14 50 27 57 36 20
8 -32 0 -63 -37 -147 -16 -36 -29 -72 -29 -78 0 -8 38 -11 136 -8 l135 3 52
55 c29 31 75 84 102 118 95 120 232 211 370 246 32 8 61 14 62 12 2 -2 -27
-22 -64 -44 -37 -22 -104 -67 -149 -100 -90 -67 -267 -247 -261 -265 9 -28
226 -13 290 19 17 9 57 39 87 67 52 47 175 116 186 104 3 -3 -27 -39 -66 -81
-50 -52 -67 -76 -55 -76 10 0 152 16 316 35 705 83 844 85 979 17 43 -21 60
-37 78 -72 29 -57 25 -98 -22 -208 -86 -200 -134 -411 -143 -624 l-6 -147 -28
24 c-39 32 -118 60 -212 75 -102 17 -405 7 -627 -19 -91 -11 -298 -36 -460
-55 -433 -52 -481 -56 -755 -63 -162 -4 -297 -2 -385 6 -139 13 -328 45 -341
58 -20 21 -43 297 -42 513 0 176 16 456 26 467 1 0 103 -12 227 -28 124 -16
291 -32 373 -36 l147 -6 0 25 c0 14 -14 70 -31 124 -25 81 -30 111 -26 164 5
70 48 189 116 321 21 41 72 140 114 221 175 340 217 627 135 928 -11 41 -25
80 -30 85 -7 7 -8 3 -5 -10 25 -85 35 -330 16 -385 l-12 -33 -31 37 -31 37 0
-148 c0 -126 -3 -153 -19 -182 -24 -45 -32 -31 -47 90 -22 185 -65 296 -141
364 -66 60 -69 52 -37 -125 25 -144 36 -324 20 -334 -7 -5 -44 60 -106 186
-130 265 -194 345 -289 355 -25 3 -46 3 -46 -1 0 -3 34 -74 75 -157 140 -279
170 -380 169 -579 0 -148 -13 -231 -64 -394 -51 -164 -57 -221 -32 -327 11
-46 23 -108 27 -136 l7 -53 -70 0 c-100 0 -256 18 -335 38 l-69 18 -4 49 c-5
64 -18 88 -60 108 -34 16 -34 18 -34 82 l0 65 195 0 c242 0 266 7 300 85 35
77 95 365 77 365 -4 0 -61 -11 -127 -24 -372 -75 -694 -65 -917 29 -15 6 -18
2 -18 -26 0 -67 51 -343 86 -466 6 -22 4 -23 -57 -23 -86 0 -281 -17 -349 -31
-76 -15 -139 -53 -156 -95 -8 -18 -14 -66 -14 -106 l0 -73 -51 -30 c-114 -67
-171 -167 -177 -311 -7 -156 31 -209 162 -221 l63 -6 6 -231 c6 -228 17 -361
38 -463 10 -49 12 -53 39 -53 16 0 64 11 107 25 43 14 84 25 91 25 9 0 12 -40
12 -167 0 -223 28 -481 50 -468 17 11 51 137 65 241 8 60 18 178 22 262 l6
152 37 0 37 0 7 -157 c22 -490 82 -1019 136 -1182 136 -416 521 -843 1110
-1230 193 -127 238 -145 350 -139 106 5 179 37 347 151 351 237 707 600 921
937 47 75 112 192 112 203 0 3 -26 -5 -57 -16 -36 -12 -94 -21 -153 -24 -94
-4 -96 -4 -180 36 -71 34 -87 38 -95 26 -5 -8 -38 -65 -73 -127 -163 -295
-385 -525 -661 -684 -70 -40 -93 -49 -145 -52 -56 -3 -69 0 -156 43 -232 114
-394 229 -550 391 -324 335 -441 710 -481 1542 -7 133 -9 245 -5 249 3 3 29 1
57 -5 83 -19 88 -12 91 121 3 105 4 112 23 110 149 -18 350 -35 473 -40 84 -3
155 -9 157 -13 4 -6 35 -191 35 -208 0 -5 -44 -12 -99 -15 -265 -18 -421 -78
-475 -184 -13 -27 -34 -57 -46 -68 -32 -29 -60 -90 -67 -145 -7 -62 24 -130
75 -165 54 -37 85 -33 101 11 33 92 131 143 236 123 63 -11 91 -32 132 -95 52
-81 74 -105 104 -111 34 -7 43 -16 59 -66 6 -21 25 -52 41 -70 31 -34 34 -52
30 -187 -4 -143 -51 -270 -121 -334 -48 -43 -73 -45 -143 -9 -130 66 -247 8
-247 -124 0 -51 11 -54 39 -10 11 17 21 30 21 27 0 -3 2 -33 4 -68 3 -79 17
-96 48 -57 l23 29 7 -44 c5 -31 16 -53 35 -69 l28 -24 3 24 c4 25 22 52 22 32
0 -14 49 -73 60 -73 4 0 15 18 24 40 19 48 52 64 111 54 52 -8 72 -19 116 -61
34 -32 36 -37 28 -71 -15 -63 -12 -72 21 -72 45 0 108 29 131 61 18 26 19 30
4 58 -19 39 -19 110 1 139 21 30 29 28 55 -14 19 -31 23 -34 31 -19 6 9 8 36
6 61 -3 42 -2 45 29 55 21 6 35 20 41 39 6 16 34 46 65 69 76 55 93 81 112
163 24 107 25 108 99 108 53 0 70 -5 109 -30 36 -25 55 -31 91 -29 40 2 58 -5
179 -79 74 -45 159 -93 189 -107 61 -28 148 -44 148 -27 0 6 -53 36 -117 68
-139 68 -219 119 -234 146 -10 18 -7 18 33 -5 212 -122 328 -181 385 -196 42
-11 93 -6 93 9 0 4 -53 31 -117 60 -293 131 -398 190 -439 249 -14 20 -14 20
23 4 63 -26 113 -52 226 -120 138 -83 258 -139 338 -158 72 -17 129 -19 129
-6 0 5 -64 37 -142 71 -394 173 -463 207 -512 259 -17 17 -26 31 -21 31 4 0
42 -20 84 -44 237 -136 608 -286 669 -271 26 6 72 42 72 55 0 4 -28 13 -62 20
-192 37 -459 134 -657 236 -135 70 -383 229 -421 269 l-23 25 31 0 c45 0 71
-12 158 -75 243 -175 526 -309 823 -391 137 -37 191 -42 215 -18 40 39 26 46
-185 89 -307 62 -582 194 -790 377 l-54 48 20 37 c11 21 40 57 64 80 43 42 44
43 26 63 -18 20 -17 21 38 79 32 33 57 64 57 69 0 5 -21 14 -47 19 l-48 9 70
22 c61 19 147 74 134 85 -2 2 -24 10 -49 18 -66 20 -65 43 3 63 30 9 64 24 76
34 22 17 21 17 -39 18 -33 0 -65 5 -70 10 -6 6 15 22 53 42 60 31 166 124 122
107 -118 -46 -187 -65 -237 -65 -32 0 -58 4 -58 8 0 5 23 23 50 41 28 18 50
34 50 36 0 2 -33 1 -74 -2 -41 -3 -87 -2 -102 2 -27 7 -25 9 36 30 36 13 118
46 182 73 135 58 208 82 253 82 l32 0 6 -82 c10 -118 8 -331 -3 -568 -12 -242
-24 -354 -51 -469 -11 -47 -16 -88 -12 -92 17 -14 313 -110 360 -116 l50 -5
22 113 c32 172 41 283 41 520 l0 216 39 11 c21 7 41 12 45 12 3 0 6 -42 6 -92
1 -115 21 -231 50 -288 21 -41 23 -43 36 -25 18 25 30 69 51 182 l16 91 34 7
c45 8 100 59 113 103 5 20 10 75 10 122 0 240 58 454 169 628 61 94 64 127 23
193 -16 24 -63 77 -106 116 l-78 73 26 87 c43 145 32 207 -47 267 -62 47 -205
86 -319 86 -27 0 -48 2 -48 3 0 2 16 91 35 198 34 183 62 435 52 446 -3 2 -43
-5 -89 -16 -221 -55 -533 -65 -736 -25 -28 6 -31 3 -77 -88 -26 -51 -59 -106
-73 -123 -31 -37 -18 -41 49 -15 30 11 57 20 62 20 4 0 7 -31 7 -70 l0 -70
199 0 198 0 7 -52 c3 -29 6 -92 6 -140 0 -83 -1 -88 -22 -92 -33 -7 -450 -47
-453 -44 -2 2 7 35 21 73 30 90 31 109 3 100 -33 -11 -154 -45 -158 -45 -2 0
22 27 52 60 53 57 84 118 102 199 7 31 5 33 -11 26 -64 -26 -95 -34 -141 -35
-29 0 -53 3 -53 8 0 9 44 72 114 163 46 61 75 113 91 169 6 18 -3 11 -32 -25
-61 -76 -130 -136 -343 -303 -108 -83 -244 -194 -303 -247 -59 -52 -107 -93
-107 -89 0 3 16 28 35 54 41 56 109 117 395 355 257 214 310 265 344 333 27
54 23 67 -9 32 -25 -27 -85 -64 -92 -56 -3 3 0 38 6 78 16 94 27 328 15 328
-5 0 -16 -12 -25 -28 -9 -15 -76 -128 -149 -252 -152 -260 -197 -332 -259
-415 -49 -66 -121 -145 -133 -145 -4 0 -1 19 7 41 22 60 19 125 -6 166 -18 29
-21 45 -17 101 7 80 36 156 159 413 123 259 151 345 156 484 3 76 0 124 -10
155 l-14 45 -22 -100 c-48 -208 -71 -294 -94 -348 -32 -70 -47 -80 -47 -30 0
62 -29 209 -57 286 -28 81 -81 173 -114 203 -22 19 -22 19 -15 -1z m-1439
-1600 c55 -9 139 -25 188 -36 l87 -21 0 -622 c0 -343 -3 -651 -7 -686 l-6 -62
-66 6 c-36 3 -162 9 -278 12 l-213 7 0 117 c0 64 3 199 7 298 l6 182 28 0 c46
0 94 -50 112 -117 29 -108 33 -303 7 -303 -16 0 -63 -21 -58 -25 3 -3 43 -10
89 -15 46 -6 133 -22 192 -36 60 -15 110 -24 112 -22 6 6 -15 160 -31 223 -27
108 -59 163 -139 239 -41 39 -75 74 -75 78 0 4 15 10 33 13 17 4 53 18 79 31
178 90 180 395 5 562 -73 68 -135 87 -277 86 -98 -1 -116 -5 -263 -53 -87 -28
-167 -51 -177 -51 -18 0 -20 7 -20 64 0 59 2 66 28 84 34 25 109 50 187 62 80
12 325 4 450 -15z m-168 -217 c33 -37 70 -109 88 -171 36 -125 4 -289 -65
-339 -28 -20 -121 -41 -132 -30 -4 4 -12 111 -18 239 -9 179 -9 237 0 255 22
42 53 68 80 68 15 0 36 -10 47 -22z m-423 -78 c43 0 58 -58 91 -350 17 -153
55 -661 55 -732 l0 -47 -72 -22 c-64 -20 -74 -21 -97 -8 -39 22 -51 110 -58
422 l-6 269 46 46 c56 59 77 100 77 152 0 52 -27 105 -79 153 -27 25 -41 46
-41 62 0 30 36 69 57 61 8 -3 20 -6 27 -6z m-134 -73 c0 -13 -15 -37 -36 -58
-53 -50 -68 -90 -50 -134 9 -22 24 -37 39 -40 19 -5 28 -17 35 -46 l10 -39
-34 0 c-38 0 -79 22 -95 51 -19 37 -29 121 -19 160 12 43 59 95 105 115 41 18
45 17 45 -9z m4131 -266 c63 -40 99 -82 105 -122 5 -28 -4 -55 -44 -139 -86
-181 -133 -352 -148 -540 l-6 -85 -67 -1 c-52 0 -86 -8 -158 -37 -51 -20 -99
-37 -108 -37 -12 0 -15 13 -15 60 l0 59 78 -5 c67 -5 81 -3 110 16 48 30 61
72 67 212 13 326 27 439 65 542 20 53 54 106 69 106 4 0 27 -13 52 -29z m-345
-572 c68 -41 114 -150 81 -194 -19 -25 -84 -26 -139 -2 -38 16 -38 16 -38 75
0 33 3 80 6 105 6 44 8 46 33 41 14 -4 40 -15 57 -25z m-1246 -86 c0 -21 -10
-67 -21 -103 -11 -36 -23 -99 -26 -140 -9 -140 -31 -168 -107 -136 -40 17 -44
27 -19 47 9 8 22 28 29 46 11 26 11 39 0 78 l-15 47 32 28 c18 16 29 31 25 35
-4 4 -30 2 -59 -5 -94 -23 -154 -98 -195 -245 -17 -61 -59 -115 -88 -115 -21
0 -20 18 6 126 20 85 20 96 7 145 -8 29 -19 54 -25 56 -6 2 -21 -29 -34 -69
-12 -40 -40 -116 -61 -168 -35 -88 -38 -105 -45 -232 l-7 -136 -27 10 c-44 15
-59 39 -65 103 -15 149 -28 168 -145 215 l-80 32 -30 -25 c-18 -15 -53 -30
-87 -37 -32 -6 -71 -14 -87 -17 -27 -5 -28 -3 -22 21 5 21 3 26 -13 26 -21 0
-71 -53 -71 -76 0 -21 -28 -17 -40 6 -26 49 62 128 169 151 84 19 242 14 331
-9 41 -11 79 -16 84 -12 17 17 18 109 1 209 -9 56 -15 104 -12 107 21 21 348
53 403 40 l29 -8 -26 -21 c-14 -12 -35 -28 -45 -35 -16 -11 -12 -12 33 -9 37
3 64 12 94 33 89 63 113 74 162 74 l47 0 0 -37z m1445 -279 c8 -4 22 -19 31
-35 14 -28 13 -31 -10 -53 -24 -25 -47 -31 -139 -39 l-48 -5 3 46 c3 45 4 46
58 68 58 24 78 28 105 18z m-2647 -271 c40 8 34 -10 -25 -76 -32 -35 -67 -80
-78 -100 -11 -20 -25 -37 -32 -37 -23 0 -53 52 -53 92 0 46 12 72 52 114 29
31 30 31 71 17 23 -8 52 -12 65 -10z m812 -572 c-13 -25 -13 -80 0 -118 14
-39 -32 -204 -97 -348 -59 -130 -64 -185 -29 -277 l26 -67 -23 -25 c-12 -13
-33 -27 -46 -31 -21 -7 -23 -5 -16 24 16 74 -35 136 -134 165 -93 27 -128 22
-173 -25 l-38 -40 -15 35 c-8 19 -15 40 -15 47 0 21 -25 3 -42 -31 -14 -27
-18 -30 -24 -16 -4 9 -4 37 -1 61 5 51 -5 57 -46 25 -32 -25 -37 -25 -37 0 0
78 108 142 154 91 13 -14 36 -20 104 -24 50 -3 114 -15 150 -27 l63 -22 34 38
c52 59 63 91 85 231 23 153 49 241 89 306 30 46 52 66 31 28z m-150 -111 c0
-25 -98 -231 -123 -257 -34 -37 -37 -27 -12 32 14 30 36 95 50 144 13 49 30
102 36 118 l11 28 19 -24 c10 -13 19 -31 19 -41z"/>
<path d="M3995 6145 c-21 -196 -66 -347 -180 -605 -87 -198 -120 -292 -129
-365 -7 -55 3 -81 28 -72 45 18 366 495 456 680 l21 42 -32 -35 c-158 -173
-150 -169 -127 -63 28 126 35 314 15 384 -9 29 -23 63 -31 74 -13 18 -15 15
-21 -40z"/>
<path d="M4320 4821 l-20 -41 40 0 c37 0 40 -2 40 -27 0 -16 -5 -48 -11 -72
-5 -24 -8 -46 -5 -48 2 -3 23 8 45 23 l42 27 -3 86 -3 86 -52 3 c-52 3 -52 3
-73 -37z"/>
<path d="M2440 4789 c0 -24 10 -40 40 -68 21 -20 46 -52 54 -71 22 -52 32 -12
28 113 l-2 57 -60 0 -60 0 0 -31z"/>
<path d="M2778 4762 c-71 -50 -196 -153 -197 -162 -1 -5 302 -51 305 -47 4 5
-31 257 -36 257 -3 -1 -35 -22 -72 -48z"/>
<path d="M4575 4723 l-110 -85 100 7 c143 10 145 10 145 54 0 48 -11 111 -19
110 -3 0 -55 -39 -116 -86z"/>
<path d="M4346 4416 l-46 -54 0 -335 0 -335 43 -20 c57 -27 87 -35 87 -24 0 5
-7 15 -15 22 -14 12 -15 59 -9 407 4 263 3 393 -3 393 -6 0 -31 -24 -57 -54z"/>
<path d="M5158 4420 c-44 -29 -98 -89 -98 -108 0 -5 11 -14 23 -21 55 -30 130
-193 130 -286 1 -85 -55 -197 -83 -169 -18 18 -31 124 -28 215 2 49 0 89 -4
89 -3 0 -20 -12 -37 -26 -30 -25 -31 -28 -31 -112 0 -105 -13 -157 -48 -189
-24 -22 -26 -23 -36 -6 -12 21 -14 200 -3 295 l7 66 -54 -21 -54 -21 -7 -146
c-7 -154 -11 -180 -26 -180 -5 0 -9 63 -9 148 0 172 3 166 -109 222 -56 28
-67 30 -90 20 -49 -22 -121 -82 -121 -100 0 -20 46 -80 61 -80 5 0 15 16 23
34 11 25 28 42 65 60 l50 26 6 -55 c10 -80 2 -292 -11 -305 -17 -17 -49 -4
-62 26 -16 35 -15 76 4 124 9 23 14 44 11 47 -9 9 -113 -46 -138 -73 -18 -19
-21 -30 -15 -66 8 -46 42 -112 74 -141 19 -17 21 -17 67 5 l47 23 17 -22 c17
-20 20 -21 47 -7 16 8 45 31 64 50 20 19 39 34 44 34 4 0 28 -18 53 -40 36
-31 49 -37 63 -30 14 7 63 62 108 120 2 3 22 -16 44 -42 22 -27 48 -48 57 -48
11 0 34 29 63 78 89 150 83 127 82 328 l0 182 -43 66 c-24 36 -47 66 -50 66
-4 0 -28 -14 -53 -30z"/>
<path d="M4085 4156 c-16 -7 -53 -38 -81 -68 l-52 -55 -7 -94 c-10 -131 0
-163 69 -216 75 -59 100 -58 165 10 55 56 61 75 33 101 -18 15 -19 14 -30 -23
-23 -76 -88 -121 -107 -73 -11 27 -19 242 -11 303 10 80 17 86 59 60 29 -18
36 -29 39 -58 l3 -37 38 33 c48 42 49 72 3 100 -45 28 -85 34 -121 17z"/>
<path d="M3376 4129 c-104 -65 -139 -131 -140 -259 -1 -114 24 -168 98 -210
28 -17 65 -30 82 -30 26 0 36 9 71 59 l41 60 -22 25 c-12 15 -24 26 -28 26 -3
0 -9 -21 -13 -47 -9 -61 -21 -83 -45 -83 -28 0 -37 24 -44 126 -6 80 -4 94 12
114 18 23 22 23 86 14 79 -12 86 -6 86 71 0 73 -32 120 -102 149 -34 15 -37
14 -82 -15z"/>
<path d="M3766 4109 l-56 -51 0 46 0 46 -54 -42 c-30 -24 -55 -46 -55 -50 -1
-4 8 -10 19 -13 19 -6 20 -15 20 -134 0 -70 -5 -153 -11 -185 -6 -32 -9 -59
-7 -60 2 -1 27 0 56 2 l54 4 -6 32 c-4 17 -9 82 -13 144 -4 91 -2 121 11 156
15 39 58 78 72 64 22 -23 28 -353 8 -442 l-7 -30 34 21 c65 41 74 69 77 248 3
99 0 174 -7 197 -12 37 -55 98 -71 98 -5 0 -34 -23 -64 -51z"/>
<path d="M2654 4130 c-55 -28 -114 -78 -114 -98 1 -22 29 -56 58 -71 20 -11
22 -9 22 13 0 23 58 86 80 86 4 0 15 3 24 6 14 5 16 -14 16 -180 0 -179 -1
-186 -20 -186 -46 0 -75 106 -46 174 9 21 16 40 16 42 0 11 -118 -57 -138 -79
-20 -21 -23 -32 -17 -59 15 -69 73 -158 102 -158 8 0 32 10 54 23 40 22 49 20
62 -17 2 -8 75 38 146 91 2 1 -3 11 -12 21 -14 16 -17 43 -17 165 l0 146 -57
34 c-114 68 -115 68 -159 47z"/>
<path d="M2942 3936 l3 -214 31 -39 c17 -21 38 -38 47 -38 9 0 56 35 106 78
l91 79 0 116 c0 65 3 133 6 152 6 37 2 40 -79 78 -5 2 -7 -74 -6 -169 3 -147
1 -179 -14 -205 -20 -39 -45 -50 -66 -29 -13 13 -17 49 -21 179 -4 121 -9 167
-19 180 -14 16 -63 46 -76 46 -3 0 -5 -96 -3 -214z"/>
<path d="M4565 3506 c-22 -7 -62 -24 -90 -38 -27 -14 -79 -35 -115 -47 -109
-36 -122 -53 -20 -26 110 30 124 15 42 -45 -24 -17 -42 -33 -40 -35 2 -2 57
12 123 31 66 19 121 34 122 34 2 0 3 -9 3 -21 0 -29 -17 -58 -58 -101 l-36
-38 37 0 c25 0 37 -4 37 -14 0 -23 -57 -74 -90 -81 -44 -10 -44 -20 0 -35 l39
-13 71 64 70 64 -4 148 c-2 81 -5 150 -7 151 -14 12 -50 13 -84 2z"/>
<path d="M2524 3343 c4 -38 9 -82 12 -100 5 -28 2 -33 -24 -47 -17 -9 -50 -18
-74 -20 -31 -3 -44 -9 -46 -21 -7 -32 18 -444 33 -563 18 -134 54 -323 65
-342 6 -10 43 16 132 91 362 306 358 302 346 316 -21 26 -66 43 -111 43 -60 0
-105 -32 -139 -99 -15 -30 -30 -56 -32 -58 -2 -3 -30 1 -61 7 -109 23 -165
100 -165 230 0 90 21 142 82 208 l41 45 -6 126 c-4 69 -7 147 -7 173 0 29 -6
52 -16 62 -30 31 -37 19 -30 -51z"/>
<path d="M2650 3256 c0 -75 2 -136 5 -136 3 0 28 11 55 25 l50 25 0 105 c0 93
-2 105 -17 105 -10 0 -35 3 -55 6 l-38 7 0 -137z"/>
<path d="M2860 3280 c0 -101 -8 -92 73 -75 27 5 27 6 27 85 l0 80 -50 0 -50 0
0 -90z"/>
<path d="M4574 3100 c-93 -64 -156 -128 -185 -187 -13 -26 -37 -60 -53 -75
-29 -27 -29 -28 -11 -48 18 -20 18 -21 -17 -58 -45 -48 -78 -96 -78 -115 0
-20 105 -118 163 -151 l47 -28 86 73 c47 41 92 79 99 85 20 15 46 555 28 553
-5 0 -40 -22 -79 -49z"/>
<path d="M2926 2540 c-71 -63 -76 -83 -76 -353 l0 -238 53 3 52 3 8 230 c4
127 6 266 5 309 l-3 80 -39 -34z"/>
<path d="M3056 2243 c-4 -153 -9 -295 -12 -315 -6 -43 1 -46 50 -23 66 31 96
133 96 320 0 65 -7 128 -20 180 -20 85 -43 115 -85 115 l-23 0 -6 -277z"/>
<path d="M2708 2347 l-58 -42 0 -255 0 -256 40 -79 c81 -158 209 -305 324
-374 l57 -34 52 36 c72 50 167 136 167 151 0 27 -41 64 -81 74 -59 15 -85 2
-100 -48 -12 -39 -15 -41 -43 -36 -16 4 -38 14 -48 22 -14 14 -20 14 -33 4
-19 -16 -56 6 -82 50 -12 20 -23 28 -33 24 -8 -3 -20 -8 -27 -11 -6 -2 -14 6
-18 19 -4 13 -28 41 -52 64 -39 36 -45 47 -50 95 -4 44 0 66 20 114 23 56 25
76 31 293 4 127 3 232 -1 232 -4 0 -34 -19 -65 -43z"/>
<path d="M4126 2038 c-12 -38 -16 -170 -10 -334 l7 -185 34 33 c19 18 46 57
60 87 l27 54 -13 156 c-11 146 -13 157 -37 179 -27 24 -62 29 -68 10z"/>
<path d="M3951 1981 c-46 -40 -53 -51 -48 -72 4 -14 7 -152 7 -307 1 -198 4
-282 12 -282 22 0 75 49 92 84 15 32 16 63 7 326 -5 160 -11 293 -13 295 -2 2
-28 -17 -57 -44z"/>
<path d="M3770 1843 c-14 -9 -37 -27 -52 -41 l-28 -26 0 -318 c0 -258 3 -318
13 -318 16 0 99 54 117 75 16 19 2 645 -14 645 -6 0 -23 -7 -36 -17z"/>
<path d="M3500 1617 c0 -22 8 -52 17 -68 15 -25 16 -33 4 -62 -36 -89 -43
-131 -36 -252 10 -201 14 -210 92 -175 l46 20 -6 137 c-4 75 -7 202 -8 282 0
110 -3 141 -11 124 -18 -36 -39 -37 -69 -1 l-28 33 -1 -38z"/>
<path d="M3328 1373 l-38 -4 0 -109 0 -110 61 -31 c34 -16 63 -29 65 -27 1 2
0 68 -3 146 -7 159 3 144 -85 135z"/>
</g>
</svg>
