<?xml version="1.0" standalone="no"?>
<!DOCTYPE svg PUBLIC "-//W3C//DTD SVG 20010904//EN"
 "http://www.w3.org/TR/2001/REC-SVG-20010904/DTD/svg10.dtd">
<svg version="1.0" xmlns="http://www.w3.org/2000/svg"
 width="690.000000pt" height="690.000000pt" viewBox="0 0 690.000000 690.000000"
 preserveAspectRatio="xMidYMid meet">
<metadata>
Created by potrace 1.15, written by Peter Selinger 2001-2017
</metadata>
<g transform="translate(0.000000,690.000000) scale(0.100000,-0.100000)"
fill="#0d6217" stroke="none">
<path d="M3306 6146 c-27 -14 -52 -23 -56 -21 -4 2 -36 9 -72 14 -89 15 -155
2 -188 -37 -24 -28 -26 -29 -60 -14 -31 13 -42 13 -105 -3 -38 -10 -80 -21
-93 -26 l-22 -9 25 -50 c17 -33 43 -63 75 -86 28 -20 50 -40 50 -45 0 -13
-119 -45 -274 -74 -77 -14 -157 -35 -179 -46 -35 -18 -46 -19 -102 -10 -77 14
-196 14 -349 0 -160 -14 -230 -2 -368 60 -123 56 -122 57 -87 -55 26 -83 49
-131 101 -204 29 -42 42 -73 51 -123 l11 -67 43 0 c43 0 117 24 233 78 36 16
103 37 148 47 46 9 129 32 184 51 56 19 106 33 113 30 6 -2 20 -50 29 -106
l18 -101 42 7 c22 3 106 24 186 46 183 50 249 57 294 33 32 -18 37 -18 112 -1
183 39 553 39 989 0 504 -45 935 -150 1195 -291 80 -43 116 -76 130 -119 l11
-33 42 15 c29 10 49 12 68 5 39 -13 189 -111 189 -122 0 -17 -29 -68 -112
-192 -44 -67 -91 -144 -104 -171 l-23 -49 21 -29 20 -29 -30 -92 c-29 -88 -46
-164 -72 -325 -7 -39 -20 -82 -29 -94 l-18 -22 -54 23 c-81 35 -439 215 -560
282 -85 46 -119 60 -165 64 -206 20 -547 108 -740 190 -126 53 -220 75 -326
75 -136 0 -276 -37 -449 -116 -63 -29 -110 -44 -136 -44 -26 0 -81 -17 -155
-49 -115 -49 -269 -101 -301 -101 -13 0 -17 9 -17 38 0 20 -9 258 -20 527 -21
514 -29 604 -62 713 -10 33 -11 33 -52 27 -22 -4 -79 -22 -126 -40 -47 -18
-101 -36 -120 -40 -19 -4 -62 -20 -95 -36 -33 -16 -130 -46 -215 -68 -227 -57
-209 -45 -212 -143 l-3 -82 -100 -51 c-102 -51 -193 -114 -254 -178 l-33 -35
26 -35 c14 -19 54 -56 89 -82 179 -138 209 -193 177 -323 -11 -42 -24 -96 -30
-120 -5 -23 -10 -69 -10 -101 0 -73 43 -165 101 -214 44 -39 47 -53 28 -178
-13 -86 -8 -125 20 -134 26 -8 131 33 232 90 159 91 266 131 430 161 157 28
201 64 215 171 3 30 14 62 23 73 21 24 438 180 483 180 5 0 0 -15 -12 -32 -42
-64 -110 -214 -134 -298 -66 -233 -34 -398 107 -543 83 -85 148 -130 443 -303
343 -202 471 -290 581 -399 75 -74 99 -106 130 -171 37 -77 38 -82 38 -194 0
-107 -2 -119 -29 -169 -63 -120 -189 -219 -347 -272 -220 -74 -424 -36 -565
106 -137 136 -168 286 -124 600 31 217 24 338 -25 435 -38 74 -86 114 -185
156 -100 41 -157 91 -181 160 -8 22 -14 80 -14 131 0 61 -4 93 -11 93 -6 0
-26 -10 -45 -23 -51 -34 -69 -80 -73 -190 l-4 -95 -47 -59 c-94 -119 -154
-289 -140 -398 21 -160 145 -267 327 -282 81 -7 75 13 82 -258 5 -202 12 -243
65 -383 19 -52 26 -82 19 -80 -24 8 -59 72 -84 157 -15 47 -29 90 -31 94 -3 5
-18 -4 -34 -19 -16 -15 -30 -26 -32 -23 -2 2 -20 25 -40 50 -52 64 -49 81 26
148 25 23 28 23 45 7 18 -16 19 -14 25 66 4 46 7 110 7 143 l0 61 -102 12
c-57 7 -113 12 -125 12 -14 0 -49 -28 -99 -80 -42 -44 -92 -90 -110 -102 -19
-13 -41 -37 -51 -55 -16 -30 -16 -43 1 -245 10 -125 23 -218 29 -225 15 -15
215 -105 359 -162 l108 -43 76 81 76 81 56 -39 c183 -124 386 -184 627 -185
145 0 185 8 432 86 l192 61 58 -51 58 -51 170 89 c93 49 215 113 270 142 l100
53 9 144 c6 99 5 155 -3 180 -6 20 -39 71 -75 113 -68 81 -84 111 -68 131 5 7
37 47 71 90 33 43 61 84 61 90 0 7 -34 46 -75 87 -41 41 -75 80 -75 86 0 6 36
53 81 103 93 105 93 84 -4 206 -55 68 -56 70 -39 90 10 11 41 48 70 81 l52 62
-71 88 c-39 49 -74 90 -79 92 -4 2 -48 -35 -96 -81 l-89 -84 53 -87 c30 -48
51 -94 48 -101 -3 -8 -28 -46 -57 -85 l-52 -72 18 -32 c11 -17 40 -62 66 -101
l48 -69 -43 -61 -44 -60 21 -75 c28 -104 29 -302 3 -419 -19 -81 -19 -84 -1
-117 22 -41 14 -61 -44 -118 -36 -35 -36 -35 -60 -17 l-25 19 46 123 c55 148
70 229 69 369 -1 177 -48 302 -166 445 -145 176 -288 276 -635 447 -134 66
-274 139 -310 163 -232 151 -296 363 -151 498 76 71 141 92 291 92 110 0 131
-3 178 -24 65 -29 104 -72 126 -142 40 -122 131 -202 356 -313 126 -62 152
-71 200 -71 30 0 66 4 80 8 24 8 24 7 -4 -19 -28 -24 -35 -26 -94 -21 -52 4
-86 16 -180 63 -65 32 -119 60 -122 61 -3 2 -5 -25 -5 -59 0 -50 -5 -70 -23
-95 -13 -18 -30 -33 -38 -33 -7 0 -29 31 -48 69 l-35 69 19 38 c11 21 20 44
20 52 0 7 -26 37 -58 67 -58 53 -88 106 -111 191 -25 95 -103 136 -261 136
-94 0 -199 -26 -216 -54 -3 -5 9 -26 28 -46 19 -21 42 -48 51 -61 15 -23 14
-26 -25 -72 -22 -26 -38 -52 -37 -57 7 -17 107 -122 117 -122 11 0 82 75 107
114 l18 27 -49 43 c-46 41 -48 45 -36 68 8 14 31 44 51 69 35 39 41 42 62 32
33 -15 119 -92 119 -107 0 -34 -250 -306 -282 -306 -8 0 -63 45 -123 101 -60
55 -111 96 -113 91 -6 -20 40 -100 84 -146 63 -66 169 -133 387 -242 213 -108
353 -186 445 -251 l64 -44 197 198 c108 109 248 253 310 321 62 67 122 127
134 133 l20 11 -6 -873 c-4 -481 -10 -913 -13 -960 l-7 -87 -646 -363 c-355
-200 -659 -365 -676 -367 -33 -4 -160 52 -623 272 -399 189 -732 369 -752 405
-8 16 -29 1149 -31 1682 0 141 -3 266 -6 278 -3 14 -13 21 -29 21 -36 0 -150
-46 -233 -93 l-74 -42 7 -245 c4 -135 13 -388 20 -563 13 -306 13 -321 -6
-405 -19 -84 -19 -103 -8 -482 7 -217 13 -400 15 -406 6 -20 142 -83 311 -145
190 -69 223 -85 449 -212 660 -372 916 -507 961 -507 37 0 185 72 360 175 294
173 551 329 659 399 61 40 121 79 135 87 41 26 135 58 231 79 136 31 274 78
295 101 17 19 19 41 22 243 5 312 -2 394 -39 449 l-28 43 22 45 22 44 3 757 2
757 72 -34 c40 -19 87 -35 104 -35 29 0 32 4 42 43 7 23 19 93 28 155 17 123
39 214 79 331 l25 75 -22 23 -22 24 24 47 c14 26 60 94 103 151 43 58 89 126
103 153 l24 48 -82 61 c-96 72 -150 98 -197 99 -26 0 -42 9 -72 40 -21 22 -63
54 -94 71 -30 17 -55 32 -55 33 0 2 9 29 21 62 15 44 19 73 15 115 -5 47 -2
61 14 82 29 36 79 147 95 208 l14 51 -352 -2 c-194 -1 -398 1 -455 5 -92 7
-107 11 -139 37 -36 29 -117 58 -160 58 -51 0 -163 32 -163 46 0 7 16 34 35
60 31 40 54 91 44 97 -85 47 -119 57 -186 57 -64 0 -76 3 -122 35 -65 43 -103
50 -187 36 -60 -11 -68 -10 -86 6 -17 15 -42 19 -152 21 -123 3 -134 2 -180
-22z m-972 -703 c60 -457 87 -1359 43 -1427 -25 -37 -65 -55 -170 -72 -156
-27 -246 -63 -482 -194 -55 -31 -153 -63 -166 -54 -12 7 -10 65 5 149 10 60
15 70 31 68 66 -9 251 -2 310 10 187 40 323 127 387 250 19 37 22 55 19 156
-4 213 -39 338 -113 407 -18 18 -89 71 -157 119 -147 104 -258 198 -273 231
-13 29 -1 46 61 86 85 54 149 29 170 -66 7 -31 16 -56 20 -56 4 0 27 21 51 46
30 30 73 59 128 84 45 21 82 42 82 47 0 4 -42 26 -93 47 -69 29 -110 40 -165
44 -66 4 -78 2 -137 -27 -76 -38 -172 -122 -192 -168 -18 -43 -17 -125 3 -171
26 -64 118 -173 243 -291 67 -62 132 -132 145 -154 53 -91 55 -240 5 -343 -27
-57 -107 -128 -166 -148 -106 -36 -233 -11 -313 61 -67 61 -97 156 -71 226 10
26 106 155 129 175 9 6 42 12 73 12 58 0 58 0 83 -42 33 -58 41 -93 26 -127
-19 -47 -86 -67 -121 -35 -15 13 -16 21 -7 38 11 20 10 20 -13 5 -13 -9 -25
-28 -27 -41 -6 -52 98 -106 176 -92 49 9 70 20 110 57 29 28 32 37 32 88 0
107 -46 191 -127 230 -52 25 -167 31 -235 11 -21 -6 -38 -10 -38 -9 -6 28 -30
441 -30 513 0 153 2 160 66 183 29 11 98 32 152 45 54 14 159 48 233 76 112
43 277 98 300 99 4 1 9 -20 13 -46z m-794 -400 c0 -10 7 -117 15 -238 8 -121
15 -227 15 -236 0 -8 -20 -29 -44 -46 l-43 -31 -12 40 c-7 22 -31 60 -53 84
-22 24 -44 59 -47 76 -6 28 -12 34 -42 39 -19 3 -45 12 -58 21 -23 17 -71 76
-71 90 0 16 67 82 122 119 67 46 175 99 201 99 9 0 17 -8 17 -17z m2170 -588
c106 -33 199 -86 274 -156 79 -74 107 -89 163 -89 21 0 66 -15 107 -35 56 -27
91 -36 166 -44 118 -13 162 -27 156 -50 -3 -9 -10 -36 -17 -61 -7 -25 -14 -47
-16 -49 -1 -2 -19 9 -39 24 -41 31 -34 33 -79 -29 -13 -18 -15 -18 -51 13 -35
31 -40 33 -93 26 -106 -13 -185 -33 -198 -51 -21 -29 -15 -68 18 -114 67 -93
143 -136 261 -150 105 -13 108 -14 108 -44 0 -36 -37 -43 -117 -21 -82 22
-260 112 -319 160 -66 54 -77 83 -72 179 l5 81 -46 31 c-29 19 -59 52 -80 87
-24 40 -37 55 -45 47 -18 -18 -36 -11 -55 21 -18 29 -19 30 -26 10 -9 -31 -33
-26 -71 15 -34 35 -34 35 -34 10 0 -20 -5 -26 -20 -26 -30 0 -75 26 -100 57
l-22 28 4 -39 4 -38 -35 6 c-23 3 -46 17 -64 37 -16 17 -30 29 -32 27 -3 -2 0
-21 6 -42 6 -21 9 -39 7 -40 -2 -2 -31 -18 -66 -36 -169 -89 -242 -273 -167
-425 34 -69 126 -165 215 -223 36 -24 172 -97 302 -163 356 -180 494 -275 542
-376 37 -75 71 -111 119 -124 36 -10 42 -16 80 -97 36 -77 41 -96 41 -162 1
-41 -3 -104 -8 -139 -9 -69 -12 -65 38 -45 11 4 13 -4 9 -42 -4 -43 -39 -154
-48 -154 -15 0 -35 15 -35 26 0 7 -9 18 -20 24 -24 13 -27 6 -64 -109 -40
-124 -70 -175 -143 -247 -49 -49 -88 -76 -158 -109 -51 -25 -95 -51 -98 -59
-8 -21 -129 -56 -191 -56 -29 0 -75 7 -102 15 -45 13 -50 13 -61 -2 -24 -32
-68 -53 -110 -53 -46 0 -51 6 -28 36 8 10 15 22 15 26 0 4 -26 15 -57 24 -43
13 -80 15 -151 11 l-93 -5 -33 51 c-40 62 -63 83 -123 117 -90 49 -125 160
-138 435 -7 152 -3 182 42 285 25 58 28 76 28 175 0 102 -2 115 -32 185 -18
41 -51 104 -72 140 -22 36 -35 67 -30 68 18 7 118 -49 145 -81 15 -18 37 -52
48 -77 31 -67 28 -235 -8 -450 -27 -158 -28 -167 -12 -216 9 -28 20 -100 25
-160 5 -60 14 -121 20 -136 11 -29 57 -58 91 -58 22 0 40 -34 40 -76 0 -27 3
-28 31 -14 15 9 26 5 57 -19 61 -49 123 -71 229 -80 54 -5 111 -14 128 -21 36
-14 69 -8 195 32 135 43 239 99 297 161 26 29 67 64 90 79 43 28 46 34 72 148
15 65 25 239 17 294 -6 36 -17 59 -47 91 -21 23 -39 48 -39 56 0 27 -37 69
-96 110 -85 60 -94 77 -37 71 l36 -5 -23 33 c-38 54 -133 115 -318 207 -157
78 -183 94 -251 160 -65 63 -78 71 -88 57 -10 -14 -16 -13 -60 9 -26 13 -86
39 -133 58 -155 63 -264 196 -277 338 -6 68 -18 85 -32 48 -13 -33 -28 -42
-46 -27 -22 18 -18 44 11 71 22 21 54 69 54 83 0 2 -14 9 -31 15 l-30 10 20
28 c11 15 25 49 30 74 33 151 147 296 286 366 47 24 124 50 186 63 70 14 305
5 369 -15z m460 -171 c85 -56 140 -80 220 -94 36 -6 90 -15 120 -21 30 -5 72
-21 93 -35 35 -23 38 -28 32 -57 -8 -39 -76 -169 -92 -174 -6 -2 -24 7 -40 21
l-29 24 -28 -52 c-27 -50 -28 -54 -12 -83 20 -40 58 -70 107 -84 34 -11 37
-14 27 -33 -6 -12 -12 -22 -13 -24 -9 -11 -60 30 -130 104 -71 75 -84 84 -116
84 -23 0 -42 -7 -54 -19 -17 -20 -16 -20 20 -10 29 8 41 7 61 -5 25 -17 38
-51 32 -83 -8 -44 -122 -19 -175 39 -18 19 -20 29 -14 65 14 72 52 114 116
127 29 6 34 4 109 -46 11 -8 20 -9 22 -3 2 6 13 25 25 44 l20 34 35 -33 c18
-19 35 -32 38 -29 11 12 55 152 50 160 -13 22 -71 41 -167 54 -76 11 -120 24
-172 50 -38 19 -94 40 -122 46 -38 8 -60 19 -78 41 -14 16 -25 33 -25 38 0 21
80 -6 140 -46z m-1581 -844 c15 -98 61 -193 146 -300 89 -112 103 -140 87
-184 -9 -25 -9 -41 -1 -65 15 -43 7 -128 -17 -176 -22 -45 -55 -71 -101 -80
-37 -7 -44 7 -16 37 27 30 10 29 -40 -4 -45 -29 -49 -30 -95 -19 -142 36 -203
123 -203 294 0 71 4 97 24 140 27 59 76 111 118 126 27 9 30 8 49 -29 27 -53
26 -59 -14 -50 l-33 7 4 -61 c5 -53 2 -70 -20 -113 l-26 -51 24 -6 c15 -4 25
-14 26 -26 1 -11 3 -24 4 -30 1 -5 3 -16 4 -24 1 -10 12 -12 45 -9 25 3 57 1
73 -5 24 -8 33 -6 57 13 60 48 81 109 54 158 -6 12 -35 48 -63 80 -61 67 -105
145 -134 237 -38 123 -36 190 6 250 l17 25 7 -30 c4 -17 12 -64 18 -105z m62
-445 c25 -54 24 -81 -6 -110 -17 -18 -35 -25 -61 -25 -51 0 -74 23 -74 73 0
35 6 46 46 84 52 50 64 48 95 -22z"/>
<path d="M4091 4157 c-44 -15 -48 -28 -19 -61 29 -33 85 -47 160 -38 l56 7
-13 33 c-10 23 -27 39 -57 52 -49 22 -79 24 -127 7z"/>
<path d="M3570 5361 c-44 -14 -84 -38 -114 -70 l-29 -30 30 -29 c29 -26 31
-34 38 -123 4 -53 2 -158 -4 -238 -11 -143 -20 -172 -67 -238 -21 -29 -19 -29
115 3 l109 25 -24 36 c-29 43 -31 92 -8 174 20 72 48 106 71 87 31 -25 43 -76
43 -176 0 -87 -3 -105 -25 -147 -14 -26 -24 -49 -22 -51 2 -2 20 1 41 7 21 6
69 9 107 7 38 -2 69 -1 69 2 0 3 -8 17 -17 30 -15 21 -19 55 -23 206 -6 231
-5 229 -131 220 l-87 -6 -6 31 c-3 18 -6 89 -6 160 0 141 1 138 -60 120z"/>
<path d="M3287 5259 c-9 -5 -26 -27 -37 -48 -10 -21 -39 -55 -62 -74 l-43 -36
33 -7 c35 -7 41 -24 16 -45 -24 -20 -17 -268 9 -297 14 -15 16 -24 7 -46 -22
-58 -1 -116 41 -116 44 0 147 93 164 148 9 30 -6 28 -40 -8 -16 -16 -32 -30
-36 -30 -11 0 -20 187 -13 286 7 94 7 96 36 106 24 9 48 34 48 52 0 14 -35 36
-56 36 -24 0 -25 2 -18 45 5 40 4 45 -12 45 -11 0 -27 -5 -37 -11z"/>
<path d="M2604 5241 c-23 -11 -60 -36 -83 -56 l-41 -37 20 -25 c15 -19 20 -41
20 -87 0 -33 4 -87 10 -120 5 -32 10 -118 11 -190 1 -106 -2 -139 -15 -164 -9
-18 -14 -32 -12 -32 17 0 178 41 199 51 l26 12 -23 31 c-46 61 -49 87 -54 369
-2 147 -7 267 -10 267 -4 0 -26 -9 -48 -19z"/>
<path d="M4859 5111 c-35 -35 -39 -86 -10 -122 l19 -24 36 19 c60 32 63 40 33
102 -15 30 -32 54 -38 54 -6 0 -24 -13 -40 -29z"/>
<path d="M4065 5076 c-77 -34 -119 -133 -120 -286 0 -167 48 -227 175 -218 92
7 151 65 154 149 1 70 -24 61 -81 -29 -19 -29 -41 -56 -50 -59 -27 -11 -57 32
-57 83 l-1 47 103 56 104 56 -4 46 c-12 126 -119 200 -223 155z m104 -105 c11
-11 23 -36 27 -56 5 -31 3 -38 -22 -58 -15 -12 -43 -27 -61 -34 -29 -10 -35
-10 -40 3 -11 30 6 117 28 141 27 28 43 29 68 4z"/>
<path d="M4432 5025 l-82 -56 21 -29 c21 -27 22 -37 16 -157 -6 -146 -16 -179
-53 -194 -18 -6 -24 -13 -17 -20 16 -16 132 -31 189 -23 l52 6 -25 37 c-24 35
-25 40 -18 140 10 154 41 225 66 152 9 -26 15 -30 33 -25 52 16 106 76 106
117 0 36 -36 60 -99 68 -34 4 -70 14 -80 23 -10 9 -20 16 -22 16 -2 0 -41 -25
-87 -55z"/>
<path d="M2861 4999 c-30 -16 -66 -29 -80 -29 -54 0 -56 -10 -26 -107 30 -96
61 -164 107 -231 37 -54 32 -82 -24 -122 -45 -33 -82 -38 -115 -15 -20 14 -24
12 -63 -33 -23 -26 -51 -64 -62 -85 l-19 -38 38 6 c140 23 200 46 268 105 121
104 193 253 220 450 4 30 14 64 22 76 14 21 13 21 -34 13 -98 -18 -91 -10 -90
-91 0 -40 -5 -93 -12 -117 l-12 -43 -25 23 c-40 37 -57 113 -44 194 6 37 9 69
8 70 -2 2 -27 -10 -57 -26z"/>
<path d="M4860 4907 c-47 -11 -86 -21 -88 -22 -1 -1 -7 -39 -13 -85 -6 -49
-24 -120 -45 -173 -18 -49 -34 -95 -34 -102 0 -20 192 -86 207 -71 3 3 -3 18
-13 34 -17 29 -16 34 5 141 12 61 33 136 48 167 26 58 42 135 27 133 -5 -1
-47 -10 -94 -22z"/>
<path d="M5102 4857 c-67 -17 -81 -24 -76 -36 26 -57 -9 -275 -58 -363 -19
-34 -20 -41 -8 -49 25 -16 90 -30 121 -27 30 3 30 4 33 68 3 90 50 223 89 256
16 14 34 23 40 21 18 -6 29 -77 23 -140 -8 -78 -36 -140 -92 -199 -25 -27 -44
-51 -42 -53 3 -3 202 -55 211 -55 2 0 7 33 10 73 4 39 20 124 37 187 31 120
37 198 19 232 -13 24 -67 48 -108 48 -42 0 -61 10 -72 36 -10 28 -18 28 -127
1z"/>
<path d="M2760 4253 c-8 -3 -61 -23 -118 -45 l-102 -40 20 -28 c36 -50 24 -91
-62 -217 l-29 -42 -44 21 -45 22 -62 -22 c-35 -11 -82 -24 -105 -27 l-43 -7 0
-57 c0 -46 6 -66 28 -102 16 -24 39 -53 52 -64 12 -11 48 -54 80 -95 32 -41
69 -85 82 -98 l25 -23 6 50 c7 56 34 116 66 145 20 18 109 47 122 40 4 -2 10
-57 13 -121 11 -184 20 -198 149 -247 80 -30 147 -74 181 -119 13 -17 46 -76
72 -131 l48 -98 -12 -97 c-17 -138 -16 -194 7 -222 45 -59 46 -67 3 -108 -73
-71 -81 -189 -20 -310 18 -36 40 -70 50 -75 18 -11 32 -1 247 173 69 56 130
101 138 101 7 0 96 -75 199 -166 l186 -166 62 64 c78 79 106 146 105 246 0 37
-4 75 -8 86 -7 17 -10 16 -43 -13 -20 -17 -40 -31 -44 -31 -18 1 -77 94 -77
121 0 15 9 50 21 77 16 37 20 57 13 74 -9 24 -107 108 -191 165 -39 26 -183
103 -193 103 -2 0 -21 -25 -42 -56 l-39 -56 -33 38 c-41 49 -48 73 -35 127 14
52 8 59 -95 117 -360 202 -468 290 -532 435 -69 156 -52 352 50 587 16 36 26
73 23 82 -6 16 -43 20 -74 9z"/>
<path d="M2205 3474 c-19 -42 -35 -82 -35 -88 0 -6 23 -49 50 -95 l51 -84 -51
-88 c-61 -108 -63 -135 -15 -225 19 -36 35 -74 35 -85 0 -11 -16 -51 -35 -89
l-35 -70 51 -72 c29 -40 53 -75 55 -77 4 -4 114 77 114 84 0 3 -18 28 -40 57
-103 136 -112 334 -25 523 17 39 49 92 69 119 l38 48 -24 33 c-38 53 -152 185
-160 185 -4 0 -23 -34 -43 -76z"/>
<path d="M4266 3176 l-50 -44 73 -81 73 -81 33 42 c19 23 31 47 28 53 -9 15
-105 155 -107 155 0 -1 -23 -20 -50 -44z"/>
<path d="M3429 2327 l-67 -53 39 -74 c21 -41 38 -84 38 -95 1 -11 -13 -49 -29
-84 -17 -35 -28 -66 -25 -69 10 -10 192 -15 209 -5 14 8 9 19 -34 80 -27 39
-50 75 -50 80 0 5 25 43 55 83 30 40 55 77 55 80 0 7 -115 110 -122 110 -2 -1
-33 -24 -69 -53z"/>
<path d="M2786 1694 c-26 -31 -46 -60 -46 -65 0 -12 195 -109 217 -109 10 1
33 14 52 30 33 28 36 29 54 12 11 -9 34 -49 52 -88 32 -70 57 -96 118 -122 41
-18 42 -16 39 36 -3 45 -1 52 41 97 l44 49 33 -44 c17 -25 39 -59 47 -76 15
-30 14 -32 -22 -83 -21 -28 -36 -53 -34 -55 14 -13 71 -35 102 -41 48 -9 78
-1 116 31 l31 26 -30 43 c-17 24 -30 47 -30 51 0 11 73 134 80 134 3 0 31 -25
62 -54 l58 -54 -15 -36 c-18 -43 -11 -45 53 -12 60 31 64 36 92 119 12 38 32
80 44 93 l21 26 46 -41 47 -41 59 30 c33 16 69 40 81 53 l23 24 -35 27 c-19
14 -43 26 -53 26 -10 0 -61 -15 -113 -34 -52 -19 -149 -47 -215 -62 -110 -26
-135 -29 -310 -28 -173 0 -199 3 -288 27 -96 26 -278 105 -336 147 -16 11 -32
20 -34 20 -3 0 -26 -25 -51 -56z"/>
</g>
</svg>
