<?xml version="1.0" standalone="no"?>
<!DOCTYPE svg PUBLIC "-//W3C//DTD SVG 20010904//EN"
 "http://www.w3.org/TR/2001/REC-SVG-20010904/DTD/svg10.dtd">
<svg version="1.0" xmlns="http://www.w3.org/2000/svg"
 width="1096.000000pt" height="1200.000000pt" viewBox="0 0 1096.000000 1200.000000"
 preserveAspectRatio="xMidYMid meet">
<metadata>
Created by potrace 1.15, written by Peter Selinger 2001-2017
</metadata>
<g transform="translate(0.000000,1200.000000) scale(0.100000,-0.100000)"
fill="#fff" stroke="none">
<path d="M6610 11785 c0 -41 36 -322 80 -627 45 -304 83 -598 86 -653 3 -55
40 -332 81 -615 41 -283 78 -573 83 -645 4 -71 29 -267 54 -435 70 -469 106
-768 117 -965 5 -99 13 -210 17 -247 5 -38 7 -68 6 -68 -7 0 -135 77 -188 113
-33 22 -78 46 -100 52 -23 7 -61 24 -86 38 -81 45 -150 59 -268 54 -183 -7
-434 -48 -658 -106 l-72 -18 -8 256 c-13 450 -11 2087 4 2256 26 308 26 308
161 586 54 113 84 161 131 213 33 36 60 70 60 75 0 5 -7 14 -16 22 -12 10 -62
8 -277 -11 -242 -22 -309 -24 -872 -23 -434 0 -640 4 -715 13 -143 18 -151 18
-164 -3 -9 -14 -6 -27 14 -64 20 -38 41 -57 106 -97 l82 -50 27 -76 c23 -66
29 -111 50 -380 68 -877 95 -1577 95 -2491 l0 -656 -56 -39 c-30 -21 -112 -81
-182 -132 -69 -51 -141 -100 -160 -108 -19 -8 -74 -43 -122 -79 -48 -36 -103
-71 -122 -79 -33 -14 -154 -87 -231 -139 -21 -14 -51 -29 -68 -32 -16 -4 -69
-26 -117 -50 -94 -46 -210 -91 -217 -83 -8 8 -24 316 -47 883 -19 490 -22 704
-23 1710 l0 1150 27 55 c33 66 142 198 173 210 22 9 35 49 35 114 l0 29 -167
-7 c-93 -4 -283 -12 -423 -18 -140 -5 -544 -12 -898 -13 -690 -3 -659 -1 -687
-56 l-15 -27 64 -30 c149 -70 274 -184 336 -307 l35 -69 6 -385 c4 -212 16
-611 28 -886 53 -1284 75 -2031 72 -2452 l-1 -113 -42 0 c-60 1 -128 27 -244
93 -55 31 -129 68 -163 82 -35 13 -97 46 -139 73 -43 27 -121 73 -174 102 -53
29 -118 71 -145 92 -26 22 -68 50 -93 63 -25 13 -76 55 -114 93 l-68 70 132
87 c73 48 144 91 159 95 38 11 87 37 151 80 30 21 80 50 110 65 78 39 90 52
90 98 l0 40 -75 -6 c-41 -4 -166 -25 -277 -48 -112 -23 -230 -46 -263 -50 -87
-13 -187 -45 -292 -94 l-93 -43 14 -39 c7 -21 32 -78 54 -128 22 -49 43 -100
46 -112 4 -11 32 -58 62 -104 30 -45 66 -104 79 -130 26 -50 148 -208 232
-299 28 -30 91 -79 140 -109 48 -30 111 -69 139 -87 28 -18 72 -39 98 -48 55
-19 121 -51 236 -116 47 -27 100 -51 117 -55 18 -4 102 -42 186 -86 l154 -79
6 -182 c10 -269 8 -1218 -3 -1493 -17 -419 -30 -498 -107 -647 -54 -105 -131
-182 -279 -280 -114 -76 -153 -97 -209 -113 l-40 -12 -3 -72 -3 -71 278 0
c153 0 420 -5 593 -10 173 -6 468 -15 655 -20 336 -9 540 -25 705 -55 82 -15
246 -56 283 -70 15 -6 17 0 17 48 0 59 -13 76 -72 91 -15 3 -55 28 -90 54 -35
26 -85 65 -113 86 -55 42 -118 148 -128 215 -11 67 -31 2651 -21 2661 5 5 64
19 132 30 110 19 369 98 442 135 14 8 55 21 90 30 98 25 409 188 515 269 56
42 91 63 92 55 7 -46 35 -518 44 -764 15 -382 15 -1365 1 -1630 -46 -821 -68
-971 -181 -1205 -44 -93 -61 -115 -138 -191 -48 -48 -136 -119 -195 -159 -60
-39 -108 -74 -108 -76 0 -3 11 -21 24 -42 14 -20 30 -57 36 -81 l12 -44 81 7
c45 3 125 11 177 16 180 17 531 23 755 11 223 -12 557 -38 585 -46 9 -3 90 -9
180 -15 91 -5 230 -21 310 -35 148 -25 205 -30 235 -19 23 9 37 50 29 89 -5
26 -17 38 -71 69 -163 94 -220 158 -297 331 -56 127 -82 212 -108 350 -20 108
-21 143 -28 2155 -5 1125 -6 2060 -3 2078 6 37 22 48 108 73 33 10 105 34 160
54 176 64 295 89 427 89 64 1 119 -2 123 -5 15 -16 174 -902 181 -1014 3 -44
25 -204 50 -355 76 -476 104 -680 115 -830 5 -80 18 -208 29 -285 34 -252 31
-277 -28 -202 -17 20 -51 54 -76 75 -25 20 -61 58 -79 84 -18 26 -52 61 -75
77 -23 17 -58 53 -79 81 -20 27 -38 48 -39 47 -11 -11 32 -309 96 -657 43
-234 82 -463 85 -510 4 -47 42 -278 85 -515 44 -236 82 -466 85 -510 4 -44 42
-275 86 -514 43 -239 79 -458 79 -488 0 -30 36 -253 81 -496 44 -243 83 -480
86 -527 3 -47 27 -209 54 -360 65 -368 71 -400 79 -400 17 0 32 93 45 280 8
113 23 297 34 410 54 537 131 1534 131 1685 0 72 9 252 20 400 11 149 20 277
20 285 0 21 89 -134 118 -205 13 -33 49 -101 79 -152 30 -51 69 -128 87 -171
37 -88 83 -160 122 -191 58 -45 54 -143 55 1412 1 787 4 1492 8 1565 l6 133
57 -103 c31 -57 70 -136 87 -176 16 -40 52 -113 80 -163 28 -49 65 -124 82
-167 32 -80 116 -232 128 -232 4 0 17 10 29 23 20 21 22 34 22 156 0 72 -20
421 -45 774 -43 617 -83 1242 -105 1622 -12 207 -27 3391 -16 3447 6 34 11 39
64 58 82 31 333 90 382 90 23 0 91 11 151 25 117 27 140 26 182 -8 22 -18 30
-37 42 -107 9 -47 20 -136 25 -199 5 -63 21 -196 34 -295 87 -631 136 -1544
136 -2537 l0 -406 -30 -59 c-16 -32 -51 -84 -78 -114 -27 -30 -56 -69 -65 -86
-33 -63 -66 -94 -103 -94 -19 0 -34 5 -34 10 0 6 -38 48 -84 94 -46 46 -98
104 -115 129 -17 25 -52 63 -77 83 -25 21 -56 57 -70 80 -14 23 -43 59 -66 79
-44 40 -36 39 -206 19 -62 -7 -63 -4 6 -106 27 -40 62 -98 77 -128 15 -30 53
-91 85 -135 32 -44 71 -107 88 -141 17 -34 56 -97 86 -141 30 -45 66 -103 79
-129 28 -58 116 -196 131 -206 39 -27 259 5 459 67 61 19 159 49 217 66 58 17
172 63 255 104 83 40 160 76 172 79 12 4 67 40 123 81 56 41 110 77 120 80 11
3 28 21 40 40 12 19 55 64 96 101 l74 66 0 209 c0 172 8 288 45 666 91 935
114 1203 121 1419 9 290 6 312 -59 412 -101 157 -152 228 -203 282 -28 30 -67
80 -87 111 -19 31 -48 66 -65 77 -16 12 -49 52 -73 89 -24 37 -61 83 -82 101
-20 19 -57 64 -81 101 -25 37 -55 76 -67 86 -12 11 -56 63 -97 115 -42 52
-102 123 -134 157 -32 34 -58 66 -58 71 0 6 -32 45 -72 88 -39 44 -78 91 -88
106 -9 15 -56 68 -104 118 l-88 91 -46 -6 c-67 -9 -327 -96 -533 -177 -192
-76 -405 -136 -422 -119 -13 13 -14 148 -3 399 l9 202 -29 0 c-16 0 -157 -5
-314 -10 -238 -9 -361 -7 -750 9 -256 11 -531 22 -612 24 l-148 5 0 -73z"/>
</g>
</svg>
